<svg width="157" height="70" viewBox="0 0 157 70" fill="none" xmlns="http://www.w3.org/2000/svg">
<path d="M44.312 52.142C54.232 49.272 59.912 45.292 65.482 38.082C55.202 46.122 52.862 46.002 51.892 46.422C61.672 41.142 69.032 32.962 66.852 26.612C64.122 18.632 47.112 14.862 32.442 19.552C25.362 21.802 20.672 26.862 16.742 30.842C19.992 24.922 24.622 20.232 34.082 17.212C45.082 13.702 57.462 14.832 64.252 18.892C64.252 18.892 56.102 7.03203 28.682 14.212C10.912 18.852 2.512 31.612 5.972 41.702C9.422 51.792 26.682 57.252 44.312 52.142Z" fill="url(#paint0_radial_982_160644)"/>
<path d="M139.062 33.702H141.512L144.613 27.292H140.812L139.062 33.702Z" fill="#FE000C"/>
<path d="M131.33 24.9824H144.84L132.19 27.4924L133.03 33.7024H129.79L128.51 27.0524C128.51 27.0524 128.18 24.9824 131.33 24.9824Z" fill="#FE000C"/>
<path d="M147.549 33.3721L155.069 25.6421L150.069 24.9121L144.449 33.3721H147.549Z" fill="#FE000C"/>
<path d="M137.763 33.7025L138.083 27.8125H134.293L134.423 33.7025H137.763Z" fill="#FE000C"/>
<path d="M125.631 47.0218C130.421 46.2518 132.561 37.2218 132.561 37.2218H132.741L131.311 47.0218H136.011L137.431 37.2218H137.591L137.941 45.1918C137.941 45.1918 138.001 47.1218 139.611 47.1218H142.011L140.451 37.2218H142.831L143.121 35.2318H137.721L137.831 34.3818H133.141L133.021 35.2318H127.261L126.971 37.2218H129.611C129.611 37.2218 128.001 44.0618 125.621 47.0218H125.631Z" fill="#FE000C"/>
<path d="M143.5 39.2526H146.7L154.23 33.3926L151.4 31.1426L143.5 39.2526Z" fill="#FE000C"/>
<path d="M142.371 47.1217H145.741L153.151 41.4917L149.851 37.9717L142.371 47.1217Z" fill="#FE000C"/>
<path d="M99.0898 47.0121H122.34L123.87 36.4121H100.63L99.0898 47.0121ZM104.97 39.0021H118.73L117.96 44.4721H104.17L104.98 39.0021H104.97Z" fill="#FE000C"/>
<path d="M106.771 24.8721H118.291L106.801 27.6921L105.311 30.7721H119.091L118.411 33.2221H104.121L103.151 35.2321H98.4414L102.601 26.6921C102.601 26.6921 103.761 24.8721 106.791 24.8721H106.771Z" fill="#FE000C"/>
<path d="M123.802 35.2321H126.642L123.462 24.8721H118.762L121.452 33.6721C121.452 33.6721 121.792 35.2321 123.802 35.2321Z" fill="#FE000C"/>
<path d="M81.4923 40.632L80.5223 47.022H85.2223L86.1923 40.632H86.7823L89.8823 45.162C89.8823 45.162 91.1623 47.142 93.0523 47.142H96.3823L91.8223 40.632H97.3623L97.6423 38.642H86.4723L86.5923 37.792H81.8923L81.7723 38.642H70.1123L69.8323 40.632H76.3323C76.3323 40.632 72.8223 47.602 63.1523 52.792C72.1123 50.832 78.5723 45.342 80.8823 40.632H81.4823H81.4923Z" fill="#FE000C"/>
<path d="M73.6512 37.0422H75.2312H78.8213L79.2012 34.8622H76.4613L79.4012 29.6122H77.1612L80.2812 24.4922H75.5713L71.5212 31.1422H73.8312L70.5312 37.0422H73.6512Z" fill="#FE000C"/>
<path d="M94.2627 24.4922L90.2127 31.1422H92.5227L89.2227 37.0422H92.3427H93.9227H97.5027L97.8927 34.8622H95.1527L98.0927 29.6122H95.8527L98.9727 24.4922H94.2627Z" fill="#FE000C"/>
<path d="M80.7912 25.4021L80.2012 28.8121L81.3213 28.1421L80.0312 37.0121H88.4812L90.1312 25.6921H83.5013L87.1912 24.3721H83.0013C81.0113 24.3721 80.8012 25.4021 80.8012 25.4021H80.7912ZM83.9812 34.4721L84.3312 32.3521H85.5312L85.1912 34.4721H83.9812ZM86.1912 28.1721L85.8712 30.1721H84.6812L85.0212 28.1721H86.1912Z" fill="#FE000C"/>
<path d="M42.1416 18.0817L39.2316 20.2517C37.1716 21.7817 35.0516 23.4717 32.8616 25.2917C31.9116 26.0917 31.0016 26.9617 30.1116 27.9317C33.2216 28.2217 35.5116 28.8817 36.9716 29.8917C38.5916 31.0417 39.4116 32.3717 39.4116 33.9217C39.4116 34.9117 38.9816 35.9917 38.1216 37.1617C37.2616 38.3217 36.1716 39.2917 34.8716 40.0617C32.8116 41.2717 30.1316 41.8717 26.8116 41.8717C22.3316 41.8717 18.8416 41.6017 16.3516 41.0517L17.2816 37.3017C21.0616 39.3617 23.8716 40.4017 25.7016 40.4017C27.1716 40.4017 28.4916 39.9917 29.6816 39.1917C31.2516 38.1417 32.0416 36.7917 32.0416 35.1217C32.0416 33.6717 31.3616 32.4817 30.0116 31.5517C28.6616 30.6217 26.9216 30.1617 24.8016 30.1617C23.4316 30.1617 21.1216 30.6817 17.8816 31.7217L17.2816 30.7517C23.0116 27.3117 27.5416 23.6817 30.8816 19.8817C30.4116 19.8817 30.0816 19.8717 29.8816 19.8717C27.6316 19.8717 23.6316 20.1517 17.8816 20.7217L20.1916 17.5117H20.5116L25.8516 17.5517L36.7016 17.6317C38.3016 17.6917 40.1216 17.8517 42.1416 18.0917V18.0817Z" fill="#E94619"/>
<path d="M44.2739 49.0323L36.3539 47.3123C37.0439 47.0623 37.8439 46.7723 38.7839 46.4423C41.8639 45.3623 44.3739 44.2723 46.3439 43.1623C51.6439 40.1523 54.3039 36.6423 54.3039 32.6423C54.3039 30.4123 53.4239 28.5723 51.6539 27.1023C50.1539 25.8623 48.3339 25.2423 46.2139 25.2423C44.0939 25.2423 42.6339 26.2423 41.7539 28.2423C41.3839 29.0923 41.2039 29.9723 41.2039 30.8723C41.2039 32.7823 42.0639 34.4223 43.7939 35.8023C45.0339 36.8023 46.2639 37.2923 47.5039 37.2923C48.4939 37.2923 49.9039 36.7523 51.7339 35.6923L52.7739 36.0023C51.9339 37.3323 50.7339 38.4023 49.1739 39.1823C47.6139 39.9723 45.9439 40.3623 44.1739 40.3623C40.7139 40.3623 38.3339 39.0523 37.0139 36.4323C36.5039 35.4323 36.2539 34.3623 36.2539 33.2623C36.2539 29.4923 39.3039 26.1823 45.4239 23.3123C47.4239 22.3723 49.1539 21.9023 50.6039 21.9023C51.8239 21.9023 53.0839 22.2223 54.4039 22.8323C55.7139 23.4423 56.8039 24.2323 57.6539 25.2023C59.2239 26.9923 60.0139 29.0923 60.0139 31.4923C60.0139 33.8923 58.9739 36.3823 56.8839 39.0923C53.9539 42.9123 49.7639 46.2223 44.2939 49.0323H44.2739Z" fill="#E94619"/>
<defs>
<radialGradient id="paint0_radial_982_160644" cx="0" cy="0" r="1" gradientUnits="userSpaceOnUse" gradientTransform="translate(36.222 32.992) scale(26.52 26.52)">
<stop offset="0.24" stop-color="white"/>
<stop offset="0.31" stop-color="#FEFDF7"/>
<stop offset="0.42" stop-color="#FDF7E1"/>
<stop offset="0.55" stop-color="#FBEEBF"/>
<stop offset="0.7" stop-color="#F9E28E"/>
<stop offset="0.87" stop-color="#F5D251"/>
<stop offset="1" stop-color="#F3C51C"/>
</radialGradient>
</defs>
</svg>
