<svg width="157" height="70" viewBox="0 0 157 70" fill="none" xmlns="http://www.w3.org/2000/svg">
<g clip-path="url(#clip0_982_160648)">
<path d="M83.909 52.2411H79.2958L83.2091 42.6199H88.8721L88.0979 43.8332H95.8502L96.1577 41.6621H82.7742L84.5241 29.1992H110.241L115.501 32.3495L114.197 41.6727H102.097L101.789 43.8439H114.748L114.282 47.1645H101.333L101.089 48.9205H114.038L113.592 52.0921H100.644L100.347 54.2314H113.72L113.221 57.7648H79.0625L79.5609 54.2314H94.3973L94.6942 52.0921H85.4679L86.7193 48.9205H95.129L95.373 47.1645H86.5814L83.8984 52.2411H83.909ZM108.937 36.7983H89.4024L89.1478 38.6288H108.682L108.937 36.7983ZM89.7947 33.946H109.329L109.562 32.275H90.0281L89.7841 33.946H89.7947Z" fill="#6B017D"/>
<path d="M121.014 40.5343L119.805 34.106L122.965 29.1144H140.05L124.302 33.5419L125.118 40.5236H121.014V40.5343ZM126.709 33.6803H131.513L131.099 40.5343H126.879L126.709 33.6803ZM134.949 32.137H139.753L135.829 40.5343H132.743L134.949 32.137ZM124.747 45.132H117.451L117.822 42.5245H125.107L125.267 41.4177H131.205L131.057 42.5245H137.897L137.537 45.132H130.707L128.915 57.9567H122.965L124.768 45.132H124.747ZM115.754 57.9567L121.3 44.3125H124.959L120.537 57.9567H115.754ZM131.46 58.0845L130.696 44.2912H134.217L136.508 58.0845H131.46ZM143.475 40.1086H139.551L146.667 29.0293L152.977 29.9872L143.465 40.1086H143.475ZM142.394 47.8034H138.353L148.343 37.1711L151.917 40.1192L142.394 47.8034ZM141.195 58.0845H136.932L146.392 46.1218L150.57 50.7089L141.206 58.0845H141.195Z" fill="#6B017D"/>
<path d="M36.4619 24.5381C27.0234 30.3491 8.99495 44.2168 4 55.9666C7.73295 49.9747 21.2649 38.4803 39.0601 29.6041L39.9191 27.5926L36.4619 24.5487V24.5381Z" fill="url(#paint0_linear_982_160648)"/>
<path d="M32.1356 20.7387L43.2708 20.3555L47.9476 11.043C36.6639 11.4368 28.0314 15.1618 22.082 22.2287L36.8017 24.8468L36.4624 24.5382L32.1356 20.7387Z" fill="url(#paint1_radial_982_160648)"/>
<path d="M66.0619 36.4472C64.5772 35.7341 62.997 35.1381 61.3002 34.6592C67.5784 31.8814 71.0462 28.3267 71.7143 24.0269C72.3824 19.7165 70.3357 16.4598 65.5528 14.2248C61.0139 12.0856 55.8281 11 49.9953 11C49.5817 11 49.1787 11.0106 48.7863 11.0213L50.3135 17.886L50.8649 20.3551L61.8835 20.7383H61.8941L53.1026 26.9325C52.8481 27.2517 52.5511 27.5604 52.2224 27.8584L53.7389 38.2778L45.4246 32.041L35.7316 38.0437C41.5644 38.0649 49.2424 40.2361 51.3528 41.343C53.3465 42.2157 54.1949 43.578 53.9086 45.4086C53.5586 47.6436 52.0951 49.3145 49.5393 50.432C47.238 51.5495 44.3641 52.103 40.9175 52.103C38.9661 52.103 37.3542 51.6666 36.071 50.7832C34.6075 49.985 34.0454 48.4311 34.4166 46.1216L16.3881 46.8453C15.7624 50.8364 17.788 54.0506 22.4436 56.5304C26.4204 58.8399 32.1683 60 39.6873 60C48.1819 60 55.4993 58.7654 61.6396 56.2963C67.9708 53.6675 71.5446 50.0489 72.3612 45.4192C72.9445 41.6835 70.8447 38.6929 66.0619 36.4579V36.4472Z" fill="url(#paint2_radial_982_160648)"/>
<path d="M87.1213 18.227C85.1594 7.06257 66.6643 11.6177 52.899 16.8647C52.0188 17.2053 51.1386 17.5458 50.3008 17.8864L50.8522 20.3556L61.8708 20.7387C70.9381 18.2163 83.6747 16.1835 77.9268 27.465C76.3996 30.4663 73.8863 34.2446 71.3411 36.767C78.4888 32.1373 88.2984 24.9746 87.1213 18.227Z" fill="url(#paint3_linear_982_160648)"/>
</g>
<defs>
<linearGradient id="paint0_linear_982_160648" x1="8.90236" y1="50.3474" x2="39.9941" y2="27.6376" gradientUnits="userSpaceOnUse">
<stop stop-color="#FF6600"/>
<stop offset="1" stop-color="#FFB300"/>
</linearGradient>
<radialGradient id="paint1_radial_982_160648" cx="0" cy="0" r="1" gradientUnits="userSpaceOnUse" gradientTransform="translate(46.3416 25.4613) rotate(-152.149) scale(30.8627 30.9731)">
<stop offset="0.21" stop-color="#FFB300"/>
<stop offset="0.28" stop-color="#E59614"/>
<stop offset="0.4" stop-color="#BC6834"/>
<stop offset="0.53" stop-color="#9B434E"/>
<stop offset="0.65" stop-color="#812662"/>
<stop offset="0.77" stop-color="#6E1171"/>
<stop offset="0.89" stop-color="#63057A"/>
<stop offset="1" stop-color="#60017D"/>
</radialGradient>
<radialGradient id="paint2_radial_982_160648" cx="0" cy="0" r="1" gradientUnits="userSpaceOnUse" gradientTransform="translate(47.9798 25.8974) rotate(35.1681) scale(29.9419 30.049)">
<stop offset="0.21" stop-color="#FFB300"/>
<stop offset="0.28" stop-color="#E59614"/>
<stop offset="0.4" stop-color="#BC6834"/>
<stop offset="0.53" stop-color="#9B434E"/>
<stop offset="0.65" stop-color="#812662"/>
<stop offset="0.77" stop-color="#6E1171"/>
<stop offset="0.89" stop-color="#63057A"/>
<stop offset="1" stop-color="#60017D"/>
</radialGradient>
<linearGradient id="paint3_linear_982_160648" x1="87.2181" y1="17.0567" x2="50.9146" y2="22.8868" gradientUnits="userSpaceOnUse">
<stop stop-color="#FF6600"/>
<stop offset="1" stop-color="#FFB300"/>
</linearGradient>
<clipPath id="clip0_982_160648">
<rect width="149" height="49" fill="white" transform="translate(4 11)"/>
</clipPath>
</defs>
</svg>
