<svg width="157" height="70" viewBox="0 0 157 70" fill="none" xmlns="http://www.w3.org/2000/svg">
<g clip-path="url(#clip0_982_160645)">
<path d="M40.6189 55.8312C50.6728 52.6347 56.4251 48.2065 62.0659 40.1645C51.6569 49.1329 49.2829 48.9903 48.309 49.4586C58.2209 43.5747 65.6674 34.4536 63.4659 27.3889C60.6963 18.5019 43.4697 14.2977 28.5968 19.5199C21.4343 22.0343 16.6762 27.6739 12.6993 32.0919C15.9762 25.4954 20.6734 20.2732 30.2708 16.9037C41.4204 12.9845 53.9599 14.2468 60.8383 18.787C60.8383 18.787 52.5801 5.58381 24.7924 13.5749C6.78461 18.7361 -1.72723 32.9674 1.77287 44.2059C5.27297 55.4443 22.7532 61.5216 40.6189 55.8312Z" fill="url(#paint0_radial_982_160645)"/>
<path d="M22.9018 22.7172C22.4351 27.6544 22.0597 31.2987 21.7655 33.6197C20.964 33.6604 20.2843 33.6808 19.7364 33.6808C16.4798 33.6808 14.0247 33.4466 12.3507 32.9784C13.2942 31.482 14.9073 29.3035 17.1596 26.4531C19.4118 23.6028 21.3901 21.2411 23.0945 19.3782C23.1148 20.1213 23.0336 21.2411 22.9018 22.7172ZM24.0482 14.1254L5.11719 37.0197C10.4637 36.9892 15.8204 36.8976 21.1872 36.7551C21.106 37.7425 20.6495 40.2875 19.8278 44.3695L26.1787 44.5324L27.2642 37.1419L27.2439 36.7551H33.6455L34.9035 33.1107C34.1021 33.1107 32.8441 33.182 31.1295 33.2939C29.6585 33.3754 28.4816 33.4161 27.6091 33.4161C27.812 31.8688 27.9642 30.7083 28.0657 29.955C28.8773 24.0405 29.4657 19.2866 29.8005 15.7033L29.973 13.8506C26.9497 13.9117 24.9815 14.0033 24.0482 14.1254Z" fill="#0F1477"/>
<path d="M38.2927 52.4422L30.2374 50.6811C30.9374 50.4266 31.749 50.1314 32.7026 49.7955C35.8274 48.696 38.384 47.5865 40.3826 46.4463C45.7697 43.372 48.4683 39.7989 48.4683 35.7168C48.4683 33.4468 47.5755 31.5635 45.7697 30.0772C44.2378 28.815 42.4015 28.1838 40.2405 28.1838C38.0796 28.1838 36.5984 29.2018 35.7056 31.2377C35.3303 32.103 35.1476 32.9988 35.1476 33.9252C35.1476 35.8695 36.0201 37.5492 37.7753 38.954C39.0434 39.972 40.2913 40.4708 41.5391 40.4708C42.5536 40.4708 43.9841 39.9211 45.8407 38.842L46.8958 39.1576C46.0436 40.5217 44.8262 41.6007 43.2334 42.4049C41.6507 43.2091 39.9565 43.6062 38.1506 43.6062C34.6404 43.6062 32.2157 42.2726 30.8765 39.6055C30.3591 38.5875 30.1055 37.4983 30.1055 36.3785C30.1055 32.5408 33.2099 29.1611 39.4289 26.2293C41.458 25.2724 43.2131 24.7939 44.6943 24.7939C45.932 24.7939 47.2103 25.1197 48.5495 25.7407C49.8785 26.3616 50.9843 27.1658 51.8467 28.1533C53.4395 29.9754 54.2409 32.1234 54.2409 34.5665C54.2409 37.0097 53.1858 39.5546 51.0655 42.3133C48.0828 46.202 43.8319 49.5817 38.2724 52.4422H38.2927Z" fill="#0F1477"/>
<path d="M137.797 33.0905H140.262L143.417 25.9443H139.562L137.797 33.0905Z" fill="#FE000C"/>
<path d="M129.953 23.3793H143.639L130.826 26.1788L131.668 33.0908H128.391L127.092 25.6799C127.092 25.6799 126.757 23.3691 129.943 23.3691L129.953 23.3793Z" fill="#FE000C"/>
<path d="M146.391 32.7243L154 24.1224L148.948 23.2979L143.246 32.7243H146.391Z" fill="#FE000C"/>
<path d="M136.477 33.0904L136.802 26.5244H132.957L133.099 33.0904H136.477Z" fill="#FE000C"/>
<path d="M124.182 47.9331C129.042 47.0882 131.203 37.0102 131.203 37.0102H131.395L129.944 47.9331H134.713L136.153 37.0102H136.316L136.671 45.8972C136.671 45.8972 136.732 48.0451 138.365 48.0451H140.8L139.207 37.0102H141.612L141.906 34.791H136.437L136.559 33.8545H131.791L131.669 34.791H125.836L125.541 37.0102H128.22C128.22 37.0102 126.586 44.6349 124.172 47.9331H124.182Z" fill="#FE000C"/>
<path d="M142.301 39.2905H145.527L153.146 32.7449L150.285 30.2305L142.301 39.2905Z" fill="#FE000C"/>
<path d="M141.145 48.0444H144.553L152.061 41.7533L148.713 37.8545L141.145 48.0444Z" fill="#FE000C"/>
<path d="M97.2969 47.9218H120.854L122.406 36.1133H98.8491L97.2969 47.9218ZM103.252 38.984H117.192L116.41 45.0918H102.44L103.252 38.984Z" fill="#FE000C"/>
<path d="M105.078 23.2461H116.745L105.109 26.3916L103.587 29.8222H117.547L116.857 32.5606H102.38L101.385 34.8001H96.6172L100.827 25.282C100.827 25.282 102.004 23.2563 105.078 23.2563V23.2461Z" fill="#FE000C"/>
<path d="M122.334 34.79H125.215L121.999 23.2461H117.23L119.96 33.0492C119.96 33.0492 120.304 34.79 122.344 34.79H122.334Z" fill="#FE000C"/>
<path d="M79.472 40.8164L78.4879 47.9219H83.2562L84.2403 40.8164H84.8388L87.9838 45.8554C87.9838 45.8554 89.2824 48.0746 91.1999 48.0746H94.5681L89.9622 40.8266H95.5725L95.8565 38.6074H84.5345L84.6562 37.6709H79.8981L79.7764 38.6074H67.9673L67.6731 40.8266H74.2675C74.2675 40.8266 70.7167 48.5938 60.9062 54.3657C69.9862 52.1771 76.54 46.059 78.8734 40.8266H79.4923L79.472 40.8164Z" fill="#FE000C"/>
<path d="M71.5184 36.8059H73.1315H76.7534L77.149 34.373H74.3692L77.3519 28.5298H75.0794L78.2447 22.8291H73.4765L69.3677 30.2502H71.7011L68.3633 36.8059H71.5184Z" fill="#FE000C"/>
<path d="M92.4062 22.8291L88.2974 30.2502H90.6409L87.293 36.8059H90.4583H92.0612H95.6932L96.0787 34.373H93.2989L96.2816 28.5298H94.0091L97.1846 22.8291H92.4062Z" fill="#FE000C"/>
<path d="M78.7632 23.8472L78.1647 27.6442L79.3009 26.8909L77.9922 36.7857H86.5446L88.2186 24.1729H81.5024L85.2359 22.707H80.9952C78.9763 22.707 78.7632 23.8573 78.7632 23.8573V23.8472ZM82.0097 33.9455L82.3546 31.5838H83.5619L83.2271 33.9455H81.9995H82.0097ZM84.2416 26.9215L83.9271 29.1508H82.73L83.0648 26.9215H84.2518H84.2416Z" fill="#FE000C"/>
</g>
<defs>
<radialGradient id="paint0_radial_982_160645" cx="0" cy="0" r="1" gradientUnits="userSpaceOnUse" gradientTransform="translate(32.7753 35.3816) scale(26.9794 28.5933)">
<stop offset="0.24" stop-color="white"/>
<stop offset="0.42" stop-color="#F7F7FA"/>
<stop offset="0.7" stop-color="#E2E2EE"/>
<stop offset="1" stop-color="#C3C4DD"/>
</radialGradient>
<clipPath id="clip0_982_160645">
<rect width="153" height="47" fill="white" transform="translate(1 11)"/>
</clipPath>
</defs>
</svg>
