<svg width="157" height="70" viewBox="0 0 157 70" fill="none" xmlns="http://www.w3.org/2000/svg">
<g clip-path="url(#clip0_982_160649)">
<path d="M82.6526 51.6029H78.2249L81.986 42.2324H87.4186L86.6724 43.4177H94.1249L94.4234 41.3005H81.5681L83.2496 29.1543H107.955L113 32.2238L111.746 41.3005H100.125L99.8262 43.4177H112.273L111.826 46.6492H99.3884L99.1595 48.3511H111.597L111.159 51.451H98.7217L98.4332 53.5378H111.278L110.811 56.9821H77.9961L78.4737 53.5378H92.7219L93.0105 51.451H84.1451L85.3491 48.3511H93.4284L93.6672 46.6492H85.2098L82.6427 51.5928L82.6526 51.6029ZM106.682 36.5696H87.9261L87.6873 38.3424H106.443L106.692 36.5696H106.682ZM88.3042 33.7838H107.07L107.299 32.1528H88.533L88.3042 33.7838Z" fill="#6B017D"/>
<path d="M118.283 40.1966L117.119 33.9361L120.153 29.0736H136.561L121.437 33.3891L122.213 40.1966H118.273H118.283ZM123.755 33.5208H128.362L127.964 40.1966H123.915L123.755 33.5208ZM131.675 32.0114H136.282L132.511 40.1966H129.546L131.665 32.0114H131.675ZM121.875 44.6742H114.87L115.218 42.1315H122.223L122.372 41.0577H128.084L127.944 42.1315H134.511L134.163 44.6742H127.606L125.885 57.1648H120.173L121.895 44.6742H121.875ZM113.238 57.1648L118.561 43.884H122.074L117.835 57.1648H113.238ZM128.322 57.2965L127.586 43.8638H130.959L133.158 57.2965H128.312H128.322ZM139.864 39.7711H136.103L142.939 28.9824L148.998 29.9245L139.864 39.7711ZM138.829 47.2776H134.959L144.551 36.9245L147.983 39.7914L138.839 47.2776H138.829ZM137.675 57.2965H133.576L142.66 45.6365L146.67 50.1141L137.675 57.2965Z" fill="#6B017D"/>
<path d="M66.8342 39.194L70.9833 9.16797H69.6799H56.2973H54.9939L50.4567 13.4125L51.9492 20.2505L63.0732 20.6455L53.2924 27.6557L54.8645 38.5963L46.4767 32.2244L36.3378 38.5963L40.9346 27.6557L38.0193 25.0522L18.6668 43.1752L18.3086 45.8293H24.577H30.9748H53.6606L52.0487 57.5298H64.3069L65.9288 45.8293H72.2072L73.1225 39.194H66.8342Z" fill="url(#paint0_radial_982_160649)"/>
<path d="M42.525 19.6424C31.3413 10.8392 15.6105 1.3269 10.7052 11.1836C7.74016 17.1402 14.7548 26.612 20.0382 32.9637C18.4064 29.8841 17.1528 25.6395 16.5757 22.4181C14.4464 10.3124 25.4808 15.7422 33.1124 20.6655L43.3409 20.311C43.0722 20.0982 42.8036 19.8754 42.525 19.6626V19.6424Z" fill="url(#paint1_linear_982_160649)"/>
<path d="M54.8546 38.5862C66.9636 51.0059 74.9534 63.8713 76.5752 70.0001C75.1225 56.3648 59.8395 35.8206 53.5312 29.3271L54.8645 38.5963H54.8546V38.5862Z" fill="url(#paint2_linear_982_160649)"/>
</g>
<defs>
<radialGradient id="paint0_radial_982_160649" cx="0" cy="0" r="1" gradientUnits="userSpaceOnUse" gradientTransform="translate(48.37 25.1333) rotate(42.218) scale(30.2135 30.7612)">
<stop offset="0.21" stop-color="#FFB300"/>
<stop offset="0.28" stop-color="#E59614"/>
<stop offset="0.4" stop-color="#BC6834"/>
<stop offset="0.53" stop-color="#9B434E"/>
<stop offset="0.65" stop-color="#812662"/>
<stop offset="0.77" stop-color="#6E1171"/>
<stop offset="0.89" stop-color="#63057A"/>
<stop offset="1" stop-color="#60017D"/>
</radialGradient>
<linearGradient id="paint1_linear_982_160649" x1="13.44" y1="16.401" x2="38.6918" y2="24.8" gradientUnits="userSpaceOnUse">
<stop stop-color="#FF6600"/>
<stop offset="1" stop-color="#FFB300"/>
</linearGradient>
<linearGradient id="paint2_linear_982_160649" x1="66.6433" y1="64.1017" x2="54.2959" y2="49.1334" gradientUnits="userSpaceOnUse">
<stop stop-color="#FF6600"/>
<stop offset="1" stop-color="#FFB300"/>
</linearGradient>
<clipPath id="clip0_982_160649">
<rect width="139" height="63" fill="white" transform="translate(10 7)"/>
</clipPath>
</defs>
</svg>
