<svg width="157" height="70" viewBox="0 0 157 70" fill="none" xmlns="http://www.w3.org/2000/svg">
<path d="M94.3045 52.8168C94.3045 56.6797 90.3929 59.8121 85.5722 59.8121C80.7514 59.8121 76.8398 56.6797 76.8398 52.8168C76.8398 48.9539 80.7444 45.8145 85.5722 45.8145C90.4 45.8145 94.3045 48.9469 94.3045 52.8168Z" fill="white"/>
<path d="M81.9727 39.9574C81.9727 48.533 88.9783 55.5143 97.5908 55.5143C106.203 55.5143 113.209 48.533 113.209 39.9574C113.209 31.3818 106.203 24.3936 97.5908 24.3936C88.9783 24.3936 81.9727 31.3748 81.9727 39.9574Z" fill="#231815"/>
<path d="M74.3029 21.3527C64.8658 21.3527 57.1836 29.0082 57.1836 38.4126C57.1836 47.8169 64.8658 55.4725 74.3029 55.4725C83.74 55.4725 91.4222 47.8169 91.4222 38.4126C91.4222 33.8544 89.6391 29.5701 86.4041 26.3464C83.1691 23.1226 78.8699 21.3457 74.2958 21.3457L74.3029 21.3527Z" fill="#231815"/>
<path d="M62.5332 33.3691C54.6043 33.3691 48.1484 39.7956 48.1484 47.7039C48.1484 55.6123 54.5972 62.0387 62.5332 62.0387C70.4691 62.0387 76.9179 55.6123 76.9179 47.7039C76.9179 43.8762 75.4237 40.2732 72.7033 37.5691C69.9828 34.8581 66.3743 33.3691 62.5332 33.3691Z" fill="#231815"/>
<path d="M30 38.9248C30 48.287 37.6399 55.9004 47.0347 55.9004C56.4296 55.9004 64.0695 48.287 64.0695 38.9248C64.0695 29.5626 56.4296 21.9492 47.0347 21.9492C37.6399 21.9492 30 29.5626 30 38.9248Z" fill="#231815"/>
<path d="M81.7578 23.9793C81.7578 31.1361 87.6005 36.9585 94.7823 36.9585C101.964 36.9585 107.807 31.1361 107.807 23.9793C107.807 16.8224 101.964 11 94.7823 11C87.6005 11 81.7578 16.8224 81.7578 23.9793Z" fill="#231815"/>
<path d="M67.5664 23.199C67.5664 30.3558 73.4091 36.1783 80.5909 36.1783C87.7727 36.1783 93.6154 30.3558 93.6154 23.199C93.6154 16.0421 87.7727 10.2197 80.5909 10.2197C73.4091 10.2197 67.5664 16.0421 67.5664 23.199Z" fill="#231815"/>
<path d="M96.6008 15.9793C96.6008 23.1361 102.443 28.9585 109.625 28.9585C116.807 28.9585 122.65 23.1361 122.65 15.9793C122.65 8.82241 116.8 3 109.618 3C102.436 3 96.5938 8.82241 96.5938 15.9793H96.6008Z" fill="#231815"/>
<path d="M98.2383 39.8094C98.2383 47.7107 104.687 54.1442 112.623 54.1442C120.559 54.1442 127.008 47.7107 127.008 39.8094C127.008 31.9081 120.559 25.4746 112.623 25.4746C104.687 25.4746 98.2383 31.901 98.2383 39.8094Z" fill="#231815"/>
<path d="M91.2891 44.494C91.2891 52.3953 97.7379 58.8287 105.674 58.8287C113.61 58.8287 120.059 52.4023 120.059 44.494C120.059 36.5856 113.61 30.1592 105.674 30.1592C97.7379 30.1592 91.2891 36.5856 91.2891 44.494Z" fill="#231815"/>
<path d="M55.2109 23.7118C55.2109 29.8222 60.2008 34.7948 66.3325 34.7948C72.4642 34.7948 77.4541 29.8222 77.4541 23.7118C77.4541 17.6015 72.4642 12.6289 66.3325 12.6289C60.2008 12.6289 55.2109 17.6015 55.2109 23.7118Z" fill="#231815"/>
<path d="M36.8945 20.3544C36.8945 28.9722 43.9283 35.9745 52.569 35.9745C61.2097 35.9745 68.2435 28.9651 68.2435 20.3544C68.2435 11.7437 61.2168 4.73438 52.569 4.73438C43.9213 4.73438 36.8945 11.7437 36.8945 20.3544Z" fill="#231815"/>
<path d="M98.1303 53.0771H74.3789V60.3323H98.1303V53.0771Z" fill="#231815"/>
<path d="M121.697 60.3746C121.697 63.4789 119.174 65.9933 116.059 65.9933H45.6578C42.5427 65.9933 40.0195 63.4789 40.0195 60.3746C40.0195 57.2702 42.5427 54.7559 45.6578 54.7559H116.059C119.174 54.7559 121.697 57.2702 121.697 60.3746Z" fill="#231815"/>
<path d="M108.555 58.4781C108.555 62.629 111.938 66.0002 116.103 66.0002C120.268 66.0002 123.651 62.629 123.651 58.4781C123.651 54.3273 120.268 50.9561 116.103 50.9561C111.938 50.9561 108.555 54.3273 108.555 58.4781Z" fill="#231815"/>
<path d="M37.9844 58.4781C37.9844 62.629 41.3674 66.0002 45.5327 66.0002C49.698 66.0002 53.0809 62.629 53.0809 58.4781C53.0809 54.3273 49.698 50.9561 45.5327 50.9561C41.3674 50.9561 37.9844 54.3273 37.9844 58.4781Z" fill="#231815"/>
<path d="M103.997 23.9784C103.997 29.0493 99.8744 33.158 94.7858 33.158C89.6972 33.158 85.5742 29.0493 85.5742 23.9784C85.5742 18.9075 89.6972 14.7988 94.7858 14.7988C99.8744 14.7988 103.997 18.9075 103.997 23.9784Z" fill="url(#paint0_radial_982_160651)"/>
<mask id="mask0_982_160651" style="mask-type:luminance" maskUnits="userSpaceOnUse" x="85" y="14" width="19" height="20">
<path d="M103.997 23.9784C103.997 29.0493 99.8744 33.158 94.7858 33.158C89.6972 33.158 85.5742 29.0493 85.5742 23.9784C85.5742 18.9075 89.6972 14.7988 94.7858 14.7988C99.8744 14.7988 103.997 18.9075 103.997 23.9784Z" fill="white"/>
</mask>
<g mask="url(#mask0_982_160651)">
<path opacity="0.5" fill-rule="evenodd" clip-rule="evenodd" d="M95.3916 28.5367C99.4047 28.2972 102.471 24.9947 102.238 21.1552C102.012 17.3229 98.5671 14.4051 94.5613 14.6446C90.5554 14.8841 87.489 18.1866 87.7148 22.0261C87.9406 25.8584 91.3784 28.7762 95.3916 28.5367ZM95.3429 27.2952C98.8857 27.0838 101.593 24.1684 101.387 20.7789C101.188 17.3958 98.1463 14.82 94.6099 15.0314C91.0736 15.2429 88.3667 18.1582 88.566 21.5478C88.7653 24.9309 91.8002 27.5066 95.3429 27.2952Z" fill="url(#paint1_linear_982_160651)"/>
<path d="M95.5541 22.3548C95.392 21.6384 95.2229 20.922 95.0678 20.1916C96.7734 19.8474 98.4367 19.5525 100.058 19.4401C100.516 20.6762 100.861 21.828 101.002 22.8745C100.1 23.6752 99.2895 24.3986 98.6059 24.9043C97.9152 25.403 97.1117 25.8735 96.1955 26.2177C95.0749 26.6461 94.1657 26.6672 93.3411 26.3722C92.5235 26.0772 91.7412 25.4872 91.0083 24.7006C90.2823 23.907 89.6903 23.008 89.3872 22.0247C89.063 20.9782 89.1617 20.0792 89.5916 19.1943C90.0216 18.3163 90.7475 17.5016 91.6214 16.7923C92.3121 16.2514 93.1931 15.7739 94.2432 15.521C95.2581 15.2822 95.9911 15.3173 96.5197 15.4929C97.0483 15.6755 97.5416 15.9986 98.0138 16.427C98.4861 16.8555 98.9371 17.3822 99.3529 17.9792C98.4579 18.1267 97.5205 18.4006 96.5408 18.7377C96.3153 18.3725 96.0404 18.1056 95.6951 17.9511C95.3497 17.7896 94.9621 17.7545 94.497 17.8528C93.8063 17.9933 93.2777 18.3795 92.9253 18.9625C92.5729 19.5454 92.4813 20.3601 92.7209 21.4137C92.9817 22.5374 93.4257 23.31 93.9684 23.6963C94.5181 24.0896 95.1524 24.1879 95.9065 23.9772C96.266 23.8789 96.5972 23.7314 96.9073 23.5347C97.2174 23.3381 97.5628 23.0642 97.9434 22.72C97.887 22.425 97.8165 22.13 97.7531 21.828C97.013 22.0036 96.2801 22.1792 95.54 22.3548H95.5541Z" fill="url(#paint2_radial_982_160651)"/>
</g>
<path d="M89.8021 23.1991C89.8021 28.27 85.6791 32.3787 80.5905 32.3787C75.5019 32.3787 71.3789 28.27 71.3789 23.1991C71.3789 18.1282 75.5019 14.0195 80.5905 14.0195C85.6791 14.0195 89.8021 18.1282 89.8021 23.1991Z" fill="url(#paint3_radial_982_160651)"/>
<mask id="mask1_982_160651" style="mask-type:luminance" maskUnits="userSpaceOnUse" x="71" y="14" width="19" height="19">
<path d="M89.8021 23.1991C89.8021 28.27 85.6791 32.3787 80.5905 32.3787C75.5019 32.3787 71.3789 28.27 71.3789 23.1991C71.3789 18.1282 75.5019 14.0195 80.5905 14.0195C85.6791 14.0195 89.8021 18.1282 89.8021 23.1991Z" fill="white"/>
</mask>
<g mask="url(#mask1_982_160651)">
<path opacity="0.5" fill-rule="evenodd" clip-rule="evenodd" d="M77.1022 29.4364C80.9081 31.5083 85.5103 30.0615 87.2653 26.4093H87.2723C88.9215 22.9819 87.4203 18.8592 84.0232 17.019C80.6262 15.1789 76.3128 16.1481 74.269 19.3508C72.0912 22.7572 73.3034 27.3645 77.1022 29.4364ZM77.2861 28.8979C80.6614 30.7354 84.743 29.4523 86.2994 26.2133H86.3057C87.7683 23.1736 86.4369 19.5173 83.4242 17.8853C80.4114 16.2533 76.5861 17.1129 74.7734 19.9533C72.842 22.9743 73.9171 27.0604 77.2861 28.8979Z" fill="url(#paint4_linear_982_160651)"/>
</g>
<path d="M77.9817 17.7627C78.6865 18.0928 79.4336 18.4369 80.2088 18.7741C80.5542 20.6704 80.97 22.5667 81.3365 24.4701C82.0695 23.0022 82.7884 21.5272 83.3522 20.1015C84.1838 20.4456 85.0296 20.7828 85.8753 21.1269C84.9098 23.6553 83.3311 26.3945 81.9638 29.0423C81.2026 28.7192 80.4132 28.3821 79.6027 28.0379C79.2221 26.1276 78.8063 24.2313 78.461 22.3349C77.7209 23.7888 76.988 25.2426 76.3889 26.7105C75.5431 26.3664 74.6762 26.0152 73.8164 25.664C74.8947 23.0022 76.5439 20.3895 77.9747 17.7627H77.9817Z" fill="url(#paint5_radial_982_160651)"/>
<path d="M118.837 15.9794C118.837 21.0503 114.714 25.159 109.626 25.159C104.537 25.159 100.414 21.0503 100.414 15.9794C100.414 10.9085 104.537 6.7998 109.626 6.7998C114.714 6.7998 118.837 10.9085 118.837 15.9794Z" fill="url(#paint6_radial_982_160651)"/>
<mask id="mask2_982_160651" style="mask-type:luminance" maskUnits="userSpaceOnUse" x="100" y="6" width="19" height="20">
<path d="M118.837 15.9794C118.837 21.0503 114.714 25.159 109.626 25.159C104.537 25.159 100.414 21.0503 100.414 15.9794C100.414 10.9085 104.537 6.7998 109.626 6.7998C114.714 6.7998 118.837 10.9085 118.837 15.9794Z" fill="white"/>
</mask>
<g mask="url(#mask2_982_160651)">
<path opacity="0.5" fill-rule="evenodd" clip-rule="evenodd" d="M102.604 20.5094C105.564 23.0097 110.195 22.4197 112.669 18.9712C115.142 15.5228 114.17 11.0137 110.815 9.06824C107.749 7.29834 103.76 8.3378 101.667 11.2525C99.5737 14.1672 99.8979 18.2338 102.604 20.5094ZM102.732 19.661C105.402 21.9171 109.581 21.3848 111.813 18.2732C114.045 15.1616 113.167 11.0931 110.14 9.33768C107.374 7.7407 103.774 8.67861 101.886 11.3086C99.9971 13.9385 100.29 17.6078 102.732 19.661Z" fill="url(#paint7_linear_982_160651)"/>
</g>
<path d="M73.5069 43.8828C73.5069 49.6982 68.7708 54.4179 62.9351 54.4179C57.0995 54.4179 52.3633 49.6982 52.3633 43.8828C52.3633 38.0674 57.0924 33.3477 62.9351 33.3477C68.7778 33.3477 73.5069 38.0674 73.5069 43.8828Z" fill="url(#paint8_radial_982_160651)"/>
<mask id="mask3_982_160651" style="mask-type:luminance" maskUnits="userSpaceOnUse" x="52" y="33" width="22" height="22">
<path d="M73.5069 43.8828C73.5069 49.6982 68.7708 54.4179 62.9351 54.4179C57.0995 54.4179 52.3633 49.6982 52.3633 43.8828C52.3633 38.0674 57.0924 33.3477 62.9351 33.3477C68.7778 33.3477 73.5069 38.0674 73.5069 43.8828Z" fill="white"/>
</mask>
<g mask="url(#mask3_982_160651)">
<path opacity="0.5" fill-rule="evenodd" clip-rule="evenodd" d="M58.6992 53.2729C62.9068 54.6284 67.3892 52.5284 68.6508 48.504H68.6437C69.9194 44.4304 67.3681 40.09 63.0195 38.8679C58.7697 37.6739 54.4705 39.9495 53.3357 43.8826C52.2151 47.7736 54.5903 51.9455 58.6992 53.2729ZM58.5475 52.7152C62.2409 53.905 66.1755 52.0617 67.2829 48.5291H67.2767C68.3964 44.9534 66.1569 41.1434 62.3398 40.0707C58.6094 39.0227 54.8356 41.0201 53.8396 44.4725C52.8559 47.888 54.9408 51.55 58.5475 52.7152Z" fill="url(#paint9_linear_982_160651)"/>
</g>
<path d="M125.151 40.1962C125.151 46.0116 120.415 50.7314 114.58 50.7314C108.744 50.7314 104.008 46.0116 104.008 40.1962C104.008 34.3809 108.737 29.6611 114.58 29.6611C120.422 29.6611 125.151 34.3809 125.151 40.1962Z" fill="url(#paint10_radial_982_160651)"/>
<mask id="mask4_982_160651" style="mask-type:luminance" maskUnits="userSpaceOnUse" x="104" y="29" width="22" height="22">
<path d="M125.151 40.1962C125.151 46.0116 120.415 50.7314 114.58 50.7314C108.744 50.7314 104.008 46.0116 104.008 40.1962C104.008 34.3809 108.737 29.6611 114.58 29.6611C120.422 29.6611 125.151 34.3809 125.151 40.1962Z" fill="white"/>
</mask>
<g mask="url(#mask4_982_160651)">
<path opacity="0.5" fill-rule="evenodd" clip-rule="evenodd" d="M109.189 46.2434C113.016 48.8491 118.224 47.8939 120.818 44.1153V44.1224C123.411 40.3438 122.404 35.1605 118.577 32.5548C114.75 29.9421 109.541 30.8973 106.948 34.6759C104.354 38.4545 105.362 43.6377 109.189 46.2434ZM109.461 45.4845C112.985 47.8835 117.78 47.0041 120.168 43.5252V43.5317C122.556 40.0528 121.628 35.2807 118.105 32.8817C114.581 30.4763 109.786 31.3557 107.398 34.8346C105.01 38.3134 105.938 43.0855 109.461 45.4845Z" fill="url(#paint11_linear_982_160651)"/>
</g>
<path d="M89.5811 40.1962C89.5811 46.0116 84.845 50.7314 79.0093 50.7314C73.1737 50.7314 68.4375 46.0116 68.4375 40.1962C68.4375 34.3809 73.1666 29.6611 79.0093 29.6611C84.852 29.6611 89.5811 34.3809 89.5811 40.1962Z" fill="url(#paint12_radial_982_160651)"/>
<mask id="mask5_982_160651" style="mask-type:luminance" maskUnits="userSpaceOnUse" x="68" y="29" width="22" height="22">
<path d="M89.5811 40.1962C89.5811 46.0116 84.845 50.7314 79.0093 50.7314C73.1737 50.7314 68.4375 46.0116 68.4375 40.1962C68.4375 34.3809 73.1666 29.6611 79.0093 29.6611C84.852 29.6611 89.5811 34.3809 89.5811 40.1962Z" fill="white"/>
</mask>
<g mask="url(#mask5_982_160651)">
<path opacity="0.7" fill-rule="evenodd" clip-rule="evenodd" d="M82.8006 47.4091C87.565 47.1773 90.4546 42.6894 89.3481 37.9556H89.3552C88.3685 33.7626 84.5203 30.9181 80.7004 31.192C76.9157 31.4589 73.9697 34.7248 74.0895 38.8897C74.2234 43.5743 78.1068 47.6338 82.8006 47.4091ZM83.0573 45.623C87.1144 45.4256 89.5751 41.6038 88.6329 37.5727H88.6389C87.7986 34.0021 84.5217 31.5798 81.2687 31.8131C78.0458 32.0404 75.5371 34.8215 75.6391 38.3682C75.7531 42.3574 79.0601 45.8144 83.0573 45.623Z" fill="url(#paint13_linear_982_160651)"/>
</g>
<path d="M107.606 38.3206C107.972 36.6701 108.839 35.3708 110.016 34.4437C111.2 33.5236 112.567 33.1022 114.252 33.3691C115.978 33.643 117.31 34.4577 118.22 35.6377C119.129 36.8246 119.509 38.2644 119.22 40.0203C119.016 41.2985 118.572 42.331 117.973 43.1106C117.367 43.8902 116.62 44.4661 115.725 44.8102C114.837 45.1544 113.808 45.2035 112.602 44.9296C111.383 44.6557 110.382 44.1992 109.607 43.6163C108.832 43.0333 108.226 42.2888 107.824 41.4039C107.422 40.5119 107.338 39.5076 107.598 38.3206H107.606ZM111.045 38.8122C110.848 39.9079 110.932 40.7226 111.284 41.2845C111.63 41.8393 112.173 42.1975 112.891 42.338C113.631 42.4785 114.245 42.338 114.738 41.9306C115.224 41.5163 115.584 40.6805 115.774 39.4233C115.936 38.3698 115.83 37.5621 115.471 37.0002C115.119 36.4453 114.583 36.1012 113.871 35.9958C113.187 35.8905 112.602 36.0661 112.102 36.5015C111.602 36.937 111.242 37.7096 111.045 38.8122Z" fill="white"/>
<path d="M77.4758 34.2817C78.3779 34.1904 79.2801 34.1132 80.1751 34.043C81.4931 35.6724 83.0084 37.2316 84.4462 38.6644C84.2136 37.063 83.9317 35.4406 83.6497 33.7971C84.5378 33.748 85.4117 33.6988 86.2786 33.6777C86.9975 36.4871 87.5049 39.2824 87.5472 41.9373C86.6521 42.1339 85.7712 42.3165 84.8902 42.5062C83.6356 41.1858 82.1626 39.746 80.7108 38.2078C80.9715 39.9005 81.2676 41.572 81.5565 43.2155C80.7108 43.3981 79.8721 43.5807 79.0475 43.7493C78.2511 40.6941 77.6027 37.4423 77.4688 34.2817H77.4758Z" fill="url(#paint14_radial_982_160651)"/>
<path d="M58.5426 41.5723C59.5786 41.6214 60.6217 41.804 61.6436 42.078C61.2631 45.3368 60.8754 48.7291 60.4878 52.1636C59.4517 52.1214 58.4087 51.9458 57.3867 51.6579C57.7673 48.406 58.1549 45.0137 58.5426 41.5793V41.5723Z" fill="url(#paint15_radial_982_160651)"/>
<path d="M43.0735 37.8156C44.9975 37.036 46.8864 36.4531 48.7259 36.3126C49.6421 36.2424 50.3821 36.5514 50.9882 37.0922C51.5943 37.633 51.989 38.2581 52.1582 38.9464C52.2921 39.5223 52.2216 39.9999 51.9326 40.4283C51.7423 40.7163 51.4181 40.9691 50.9671 41.1869C51.7283 41.2782 52.3203 41.5099 52.7291 41.8541C53.1378 42.1982 53.3916 42.6267 53.462 43.1604C53.5184 43.6029 53.4338 44.0173 53.2224 44.4457C53.011 44.8741 52.7009 45.2815 52.3062 45.6537C52.0595 45.8855 51.693 46.1384 51.1926 46.4053C50.5372 46.7564 50.1072 46.9601 49.8888 47.0303C48.2184 47.6203 46.5903 48.0136 45.0398 48.0768C44.039 44.4106 43.2215 40.9832 43.0664 37.8016L43.0735 37.8156ZM46.7102 41.0253C47.1683 40.941 47.6264 40.8568 48.0845 40.7795C48.5778 40.6952 48.9021 40.5547 49.0712 40.3511C49.2333 40.1474 49.2826 39.8805 49.2263 39.5364C49.1769 39.2203 49.036 38.9885 48.8175 38.827C48.599 38.6725 48.2536 38.6233 47.7814 38.6935C47.3233 38.7638 46.8652 38.8551 46.4071 38.9534C46.4987 39.6417 46.6044 40.33 46.7102 41.0183V41.0253ZM47.4361 45.3236C47.9506 45.2183 48.4721 45.0989 48.9866 44.9725C49.5152 44.8461 49.8747 44.6424 50.065 44.3966C50.2552 44.1507 50.3328 43.8628 50.2834 43.5397C50.2411 43.2377 50.0931 43.0129 49.8465 42.8725C49.5998 42.725 49.1981 42.7039 48.6483 42.8093C48.1127 42.9146 47.5841 43.0129 47.0555 43.1113C47.1824 43.8487 47.3092 44.5862 47.4361 45.3236Z" fill="white"/>
<path d="M101.229 13.0729C101.779 11.6331 102.618 10.4321 103.654 9.68759C104.697 8.9431 105.838 8.77454 107.22 9.36451C108.636 9.96852 109.687 10.9588 110.314 12.0685C110.941 13.1993 111.082 14.3511 110.645 15.812C110.328 16.8725 109.856 17.7645 109.278 18.4317C108.7 19.099 108.009 19.5906 107.22 19.8224C106.43 20.0541 105.535 19.9699 104.527 19.5414C103.498 19.099 102.688 18.509 102.103 17.8839C101.518 17.2518 101.123 16.5424 100.926 15.7488C100.736 14.9551 100.834 14.1123 101.222 13.0729H101.229ZM103.971 13.8384C103.668 14.8147 103.625 15.5521 103.851 16.0929C104.069 16.6408 104.478 17.0341 105.077 17.2518C105.69 17.4766 106.226 17.4204 106.684 17.1043C107.142 16.7812 107.537 16.0578 107.84 14.9622C108.094 14.0421 108.094 13.3257 107.861 12.7779C107.629 12.2371 107.22 11.8438 106.642 11.6401C106.085 11.4434 105.592 11.5137 105.127 11.8438C104.668 12.1739 104.281 12.8481 103.978 13.8314L103.971 13.8384Z" fill="url(#paint16_radial_982_160651)"/>
<path d="M76.6068 24.871C76.6068 29.9419 72.4837 34.0506 67.3952 34.0506C62.3066 34.0506 58.1836 29.9419 58.1836 24.871C58.1836 19.8001 62.3066 15.6914 67.3952 15.6914C72.4837 15.6914 76.6068 19.8001 76.6068 24.871Z" fill="url(#paint17_radial_982_160651)"/>
<mask id="mask6_982_160651" style="mask-type:luminance" maskUnits="userSpaceOnUse" x="58" y="15" width="19" height="20">
<path d="M76.6068 24.871C76.6068 29.9419 72.4837 34.0506 67.3952 34.0506C62.3066 34.0506 58.1836 29.9419 58.1836 24.871C58.1836 19.8001 62.3066 15.6914 67.3952 15.6914C72.4837 15.6914 76.6068 19.8001 76.6068 24.871Z" fill="white"/>
</mask>
<g mask="url(#mask6_982_160651)">
<path opacity="0.5" fill-rule="evenodd" clip-rule="evenodd" d="M69.0862 33.692C72.6594 33.4322 75.5984 30.5385 75.6477 26.9566H75.6407C75.6971 23.0164 72.307 19.7857 68.0713 20.0947C63.8284 20.4107 60.96 24.1121 61.6013 27.996C62.1863 31.5288 65.5129 33.9589 69.0862 33.692ZM69.0251 33.2728C72.0884 33.05 74.608 30.5693 74.6502 27.4985H74.6442C74.6925 24.1207 71.7863 21.351 68.155 21.6159C64.5177 21.8869 62.0586 25.06 62.6084 28.3897C63.1099 31.4183 65.9618 33.5016 69.0251 33.2728Z" fill="url(#paint18_linear_982_160651)"/>
</g>
<path d="M67.0586 23.4524C67.9466 23.2909 68.8347 23.1293 69.7156 22.9678C70.35 25.8123 71.0477 28.6357 71.6256 31.3818C70.7235 31.6206 69.8214 31.8454 68.9263 32.0771C68.2849 29.2467 67.5942 26.3741 67.0656 23.4594L67.0586 23.4524Z" fill="url(#paint19_radial_982_160651)"/>
<path d="M108.843 38.6298C108.843 44.4452 104.107 49.165 98.271 49.165C92.4354 49.165 87.6992 44.4523 87.6992 38.6298C87.6992 32.8074 92.4283 28.0947 98.271 28.0947C104.114 28.0947 108.843 32.8145 108.843 38.6298Z" fill="url(#paint20_radial_982_160651)"/>
<mask id="mask7_982_160651" style="mask-type:luminance" maskUnits="userSpaceOnUse" x="87" y="28" width="22" height="22">
<path d="M108.843 38.6298C108.843 44.4452 104.107 49.165 98.271 49.165C92.4354 49.165 87.6992 44.4523 87.6992 38.6298C87.6992 32.8074 92.4283 28.0947 98.271 28.0947C104.114 28.0947 108.843 32.8145 108.843 38.6298Z" fill="white"/>
</mask>
<g mask="url(#mask7_982_160651)">
<path opacity="0.5" fill-rule="evenodd" clip-rule="evenodd" d="M96.1875 49.0178C100.054 49.5952 103.89 47.4562 105.159 43.7709C106.596 39.585 104.207 34.9917 99.76 33.594C95.2846 32.1893 90.6118 34.6124 89.3714 38.9037C88.1662 43.0826 90.6894 47.4442 94.9674 48.7435C95.1761 48.8066 95.3855 48.8613 95.5952 48.9079C95.7925 48.9524 95.99 48.989 96.1875 49.0178ZM96.1875 49.0178C99.7194 49.5336 103.218 47.5763 104.377 44.2098C105.693 40.377 103.506 36.1711 99.4336 34.8913C95.3357 33.6051 91.0571 35.8238 89.9213 39.7531C88.8178 43.5796 91.1281 47.5732 95.0453 48.7629C95.2281 48.8182 95.4115 48.8665 95.5952 48.9079C95.7925 48.9517 95.99 48.9883 96.1875 49.0178Z" fill="url(#paint21_linear_982_160651)"/>
</g>
<path d="M95.8561 44.1857C96.0605 43.392 96.2719 42.5914 96.4834 41.7907C98.1678 42.3034 99.8522 42.8583 101.494 43.3078C101.029 44.8389 100.529 46.4472 100.014 48.0907C98.9008 48.6456 97.9845 48.9195 97.2234 48.9476C96.4693 48.9757 95.6165 48.786 94.6509 48.3506C93.4598 47.8168 92.5154 47.1074 91.8318 46.37C91.1481 45.6185 90.6759 44.8178 90.4433 43.9328C90.2107 43.0479 90.246 42.17 90.5631 41.1446C90.8944 40.07 91.4512 39.1007 92.1771 38.2579C92.9101 37.4151 93.784 36.7619 94.7989 36.4459C95.5883 36.2001 96.5679 36.2352 97.759 36.6355C98.9008 37.0288 99.7465 37.5135 100.268 37.9629C100.79 38.4195 101.191 38.9532 101.459 39.5432C101.727 40.1332 101.868 40.7934 101.861 41.5308C100.768 41.3693 99.669 41.2078 98.5625 41.0673C98.5413 40.5967 98.4074 40.1964 98.1607 39.8663C97.907 39.5362 97.5476 39.2904 97.0683 39.1429C96.3565 38.9252 95.7151 39.0516 95.1513 39.487C94.5875 39.9225 94.1435 40.7161 93.8404 41.8399C93.5232 43.0339 93.5232 43.9188 93.8193 44.572C94.1223 45.2181 94.6439 45.7027 95.398 45.9767C95.7574 46.1031 96.1098 46.1733 96.4622 46.1663C96.8146 46.1663 97.2375 46.089 97.7238 45.9415C97.8224 45.5834 97.9211 45.2181 98.0198 44.8599C97.3009 44.6422 96.582 44.4104 95.8561 44.1716V44.1857Z" fill="url(#paint22_radial_982_160651)"/>
<path d="M45.0631 54.8819L44.0411 55.0926L44.3301 55.1839C44.4076 55.205 44.4499 55.2331 44.4499 55.2612C44.4499 55.3173 44.4076 55.3525 44.3231 55.3735C43.8438 55.6334 43.2588 55.9073 42.5822 56.1953L41.9832 55.9846C42.6245 55.7177 43.1883 55.4508 43.6747 55.1699L42.7091 55.3665V54.8959L47.995 53.8143V54.2849L45.7961 54.7344V55.2892C46.6559 54.9943 47.4523 54.6923 48.1994 54.3762L48.7632 54.5096C48.8267 54.5096 48.8548 54.5448 48.8548 54.601C48.8548 54.6642 48.7773 54.7133 48.6223 54.7625C47.3325 55.2752 45.8806 55.7809 44.2596 56.2936L48.5659 55.4157V58.1408L46.6771 58.527C47.3889 58.513 48.2487 58.4498 49.2566 58.3304L48.6927 58.9485C47.5862 59.0046 46.6418 59.0046 45.8665 58.9485L46.1626 58.6394L44.5556 58.9695L44.9151 59.117C44.9574 59.1311 44.9856 59.1521 44.9856 59.1872C44.9856 59.2224 44.9433 59.2575 44.8516 59.2926C43.879 59.6929 42.9558 60.0301 42.0959 60.304L41.5321 59.9739C42.5258 59.6789 43.3786 59.3769 44.0834 59.0678L42.4906 59.3909V56.8414C42.3003 56.8976 42.1171 56.9538 41.9268 57.01L41.5039 56.5956C42.9981 56.1882 44.1751 55.8371 45.0278 55.5561C45.0419 55.5561 45.056 55.5491 45.0701 55.5421V54.8959L45.0631 54.8819ZM44.9362 53.2314L45.6763 53.1331C45.8172 53.112 45.8877 53.1331 45.8877 53.1822C45.8877 53.2173 45.8313 53.2806 45.7256 53.3789V53.4913L48.9676 52.8311V53.8284L48.2205 53.9829V53.5053L42.5047 54.6712V55.1488L41.7435 55.3033V54.306L44.9362 53.6528V53.2314ZM43.2377 57.2769L47.7906 56.3498V56.0759L43.2377 57.003V57.2769ZM43.2377 58.0003L47.7906 57.0732V56.7993L43.2377 57.7264V58.0003ZM47.7906 57.7966V57.5157L43.2377 58.4428V58.7237L47.7906 57.7966Z" fill="#FFF000"/>
<path d="M51.5108 52.0652L56.832 50.9766V54.1441L56.0778 54.2986V53.9334L54.5837 54.2354V54.8675L57.7975 54.2144V54.8043L54.8304 55.4083C55.3237 55.6682 55.8171 55.8438 56.3175 55.9421C56.7615 56.0264 57.3746 56.0756 58.157 56.0896L57.4099 56.8271C56.7615 56.7428 56.2399 56.6304 55.8523 56.497C55.4153 56.3495 54.9925 56.1388 54.5837 55.8578V57.7401L53.8225 57.8946V56.0475C53.3855 56.504 52.9486 56.8973 52.5187 57.2134C52.0676 57.5435 51.5319 57.8595 50.8976 58.1545L50.2422 57.7331C51.0175 57.396 51.687 57.0448 52.2508 56.6796C52.6385 56.4338 53.0543 56.1037 53.5054 55.6823L50.5734 56.2792V55.6893L53.8225 55.022V54.3899L52.272 54.706V55.0642L51.5108 55.2187V52.0511V52.0652ZM52.272 53.0485L53.8225 52.7324V52.1495L52.272 52.4655V53.0555V53.0485ZM52.272 54.1582L53.8225 53.8421V53.2592L52.272 53.5752V54.1582ZM54.5837 51.995V52.5849L56.0778 52.2759V51.693L54.5837 51.995ZM54.5837 53.1047V53.6876L56.0778 53.3856V52.7956L54.5837 53.0976V53.1047Z" fill="#FFF000"/>
<path d="M56.2545 59.3624L55.2325 59.5731L55.5215 59.6644C55.599 59.6854 55.6413 59.7135 55.6413 59.7416C55.6413 59.7978 55.599 59.8329 55.5145 59.854C55.0352 60.1139 54.4502 60.3878 53.7736 60.6757L53.1746 60.465C53.8159 60.1981 54.3798 59.9313 54.8661 59.6503L53.9005 59.847V59.3694L59.1864 58.2878V58.7654L56.9875 59.2149V59.7697C57.8473 59.4747 58.6437 59.1727 59.3908 58.8567L59.9546 58.9901C60.0181 58.9901 60.0463 59.0252 60.0463 59.0814C60.0463 59.1446 59.9687 59.2008 59.8137 59.243C58.5239 59.7557 57.072 60.2614 55.451 60.7741L59.7573 59.8961V62.6212L57.8685 63.0075C58.5803 62.9935 59.4401 62.9303 60.448 62.8109L59.8842 63.4289C58.7776 63.4851 57.8332 63.4851 57.065 63.4289L57.361 63.1199L55.7541 63.45L56.1135 63.5975C56.1558 63.6115 56.177 63.6326 56.177 63.6677C56.177 63.7028 56.1347 63.7379 56.0431 63.7731C55.0704 64.1734 54.1542 64.5035 53.2873 64.7844L52.7235 64.4543C53.7173 64.1523 54.57 63.8573 55.2748 63.5483L53.682 63.8714V61.3149C53.4917 61.3711 53.3085 61.4272 53.1182 61.4764L52.6953 61.069C54.1895 60.6617 55.3665 60.3105 56.2193 60.0296C56.2333 60.0296 56.2474 60.0226 56.2615 60.0155V59.3694L56.2545 59.3624ZM56.1276 57.7119L56.8677 57.6135C57.0086 57.5925 57.0791 57.6135 57.0791 57.6627C57.0791 57.6978 57.0298 57.761 56.917 57.8593V57.9717L60.159 57.3115V58.3088L59.4119 58.4634V57.9858L53.6961 59.1517V59.6292L52.9349 59.7838V58.7864L56.1276 58.1333V57.7119ZM54.4291 61.7573L58.982 60.8302V60.5563L54.4291 61.4834V61.7573ZM54.4291 62.4808L58.982 61.5537V61.2798L54.4291 62.2068V62.4808ZM58.982 62.2771V61.9961L54.4291 62.9232V63.2042L58.982 62.2771Z" fill="#FFF000"/>
<path d="M62.2796 56.6306L67.6007 55.542V58.7096L66.8396 58.8641V58.4988L65.3454 58.8009V59.44L68.5592 58.7868V59.3768L65.5921 59.9808C66.0854 60.2407 66.5788 60.4162 67.0792 60.5146C67.5232 60.5989 68.1364 60.648 68.9187 60.6621L68.1716 61.3925C67.5232 61.3082 67.0017 61.1958 66.614 61.0624C66.1771 60.9219 65.7542 60.7042 65.3454 60.4162V62.2985L64.5842 62.453V60.6059C64.1473 61.0624 63.7103 61.4557 63.2804 61.7718C62.8293 62.1019 62.2937 62.4109 61.6594 62.7129L61.0039 62.2915C61.7792 61.9544 62.4487 61.6032 63.0126 61.238C63.4002 60.9922 63.816 60.6621 64.2671 60.2336L61.3352 60.8306V60.2477L64.5842 59.5805V58.9484L63.0337 59.2644V59.6296L62.2725 59.7841V56.6166L62.2796 56.6306ZM63.0407 57.6139L64.5913 57.2978V56.7149L63.0407 57.031V57.6139ZM63.0407 58.7236L64.5913 58.4075V57.8246L63.0407 58.1407V58.7306V58.7236ZM65.3524 56.5604V57.1433L66.8466 56.8413V56.2584L65.3524 56.5604ZM65.3524 57.6701V58.253L66.8466 57.951V57.3611L65.3524 57.6631V57.6701Z" fill="#FFF000"/>
<path d="M75.2818 55.8234L75.458 55.5144C75.5215 55.4301 75.6342 55.3529 75.7963 55.2826C75.9584 55.2124 76.0923 55.1703 76.1981 55.1492C76.3038 55.1281 76.3883 55.1211 76.4377 55.1211H76.5504L77.0579 55.3388C77.1072 55.4863 77.1284 55.5706 77.1143 55.5917L77.0086 55.8586C76.931 55.8796 76.8746 55.8866 76.8324 55.8866H76.628L76.4518 55.9428L76.4941 56.0131L76.3179 56.1465C76.2897 56.2519 76.2685 56.3291 76.2615 56.3783L75.9655 57.2281L75.6413 58.7241C75.6272 58.7873 75.599 58.8646 75.5708 58.9699C75.5426 59.0753 75.5215 59.1455 75.5144 59.1947C75.5144 59.2368 75.5144 59.3422 75.5144 59.5107L75.4862 60.2622L75.5215 60.8803C75.5215 61.0559 75.5215 61.2174 75.5567 61.379C75.5849 61.5405 75.599 61.6318 75.5919 61.6529L75.5144 61.8285L75.5567 62.0251V62.0532C75.5567 62.1305 75.5285 62.2288 75.4933 62.3341L75.3664 62.6853H75.1479C75.0492 62.587 74.9788 62.5308 74.9506 62.5167L74.7744 62.4465C74.6405 62.3131 74.5629 62.2218 74.5418 62.1796C74.5207 62.1375 74.4854 62.0462 74.429 61.8987C74.3727 61.7512 74.3515 61.6669 74.3515 61.6388V61.3579C74.3515 61.3579 74.3022 61.3017 74.2458 61.1823C74.1824 61.0629 74.1542 60.9084 74.1612 60.7047L74.1753 60.178C74.2387 59.7987 74.2881 59.4335 74.3233 59.0893C74.3586 58.7452 74.3938 58.5134 74.4079 58.387C74.422 58.2606 74.4925 58.0288 74.5982 57.6776C74.7039 57.3264 74.7673 57.0525 74.8026 56.8629C74.8308 56.6733 74.8519 56.5539 74.866 56.5258C74.8801 56.4907 74.9224 56.3994 74.9858 56.2519L75.0915 56.0201C75.1761 55.9358 75.2395 55.8726 75.2748 55.8234H75.2818Z" fill="white"/>
<path d="M79.6731 62.7699C79.4476 62.7699 79.2503 62.7419 79.0741 62.6857C78.8979 62.6295 78.7076 62.5241 78.5032 62.3766C78.2988 62.2291 78.1015 62.0676 77.9041 61.9061C77.7138 61.7375 77.5447 61.576 77.4037 61.4074C77.2628 61.2388 77.1288 61.0141 76.9949 60.7261C76.861 60.4382 76.8117 60.1853 76.8328 59.9606L76.8822 59.1529C76.9808 58.9352 77.0936 58.7174 77.2064 58.5067C77.3191 58.289 77.3826 58.1626 77.4108 58.1134L77.6645 57.5445C77.7561 57.3689 77.8759 57.2214 78.0169 57.081C78.1578 56.9475 78.3411 56.8141 78.5596 56.6947C78.7781 56.5753 78.9965 56.477 79.215 56.4138C79.4335 56.3505 79.652 56.3154 79.8634 56.3154C80.0185 56.3154 80.2793 56.3646 80.6598 56.4489C81.0334 56.5332 81.273 56.5964 81.3717 56.6455L81.9285 57.088L82.4148 57.4392C82.5064 57.5235 82.6121 57.7061 82.739 57.9729L82.9645 58.4576C83.0843 58.7596 83.1407 59.0335 83.1266 59.2723C83.1125 59.4479 83.035 59.7218 82.887 60.087C82.746 60.4522 82.6262 60.7612 82.5416 61.0141C82.457 61.2669 82.3866 61.4144 82.3443 61.4636L82.0342 61.8499C81.9144 61.9552 81.8086 62.0536 81.717 62.1449C81.6183 62.2362 81.5267 62.3134 81.421 62.3766C81.3223 62.4469 81.2025 62.496 81.0757 62.5241L80.6105 62.6505C80.2088 62.7208 79.8987 62.7559 79.6731 62.7559V62.7699ZM78.0239 59.8412C78.1015 60.1291 78.179 60.382 78.2495 60.5927C78.3199 60.8034 78.4116 60.993 78.5173 61.1546C78.623 61.3161 78.7569 61.4636 78.9049 61.6181C79.0529 61.7656 79.1657 61.8429 79.2291 61.8499L79.8352 61.9974L80.2722 62.0536C80.392 62.0325 80.5048 62.0044 80.6176 61.9833C80.7233 61.9552 80.8149 61.9201 80.8854 61.878C80.9558 61.8358 81.0616 61.7094 81.1955 61.5198C81.3294 61.3231 81.414 61.1756 81.4563 61.0773L81.6465 60.1432L81.8439 59.6164C81.858 59.5322 81.8298 59.2653 81.7664 58.8158L81.6747 58.2117C81.6113 58.001 81.5197 57.8325 81.3999 57.7131L81.2448 57.5515L80.7444 57.2706C80.5118 57.1372 80.3145 57.0599 80.1453 57.0318C79.9832 57.0037 79.793 57.0318 79.5956 57.088C79.3983 57.1512 79.2221 57.2636 79.0811 57.4041C78.9402 57.5515 78.7569 57.7903 78.5384 58.1204C78.3199 58.4576 78.1931 58.6753 78.1719 58.7736L77.9746 59.4549L78.0239 59.8412Z" fill="white"/>
<path d="M90.027 55.8445C90.2455 55.7462 90.4076 55.6549 90.4992 55.5847L90.6261 55.4793C90.6825 55.4372 90.76 55.395 90.8516 55.3459C90.9432 55.2967 91.1547 55.2546 91.4859 55.2195C91.8172 55.1843 92.1132 55.1633 92.3881 55.1562C92.6206 55.1562 92.8532 55.1703 93.0788 55.1914C93.3043 55.2124 93.5016 55.2476 93.6567 55.3037C93.8117 55.3529 93.9738 55.4161 94.143 55.4793L94.6434 55.6971C94.7914 55.7603 94.876 55.8094 94.9112 55.8445C94.9464 55.8797 94.9676 55.9078 94.9676 55.9288C94.9676 55.9499 94.9817 55.9991 94.9887 56.0693C94.9958 56.1395 95.0099 56.1887 95.031 56.2027L95.1297 56.3081C95.0945 56.5258 95.0592 56.6803 95.031 56.7857L94.9042 57.0947C94.9042 57.0947 94.8689 57.1649 94.8407 57.2562C94.8125 57.3476 94.7773 57.4318 94.735 57.5161C94.6927 57.6004 94.6152 57.7057 94.4883 57.8322L94.2276 58.078C94.1641 58.1412 94.0091 58.3168 93.7624 58.6047C93.5157 58.8927 93.3395 59.0753 93.2338 59.1526L92.8603 59.4124L92.5925 59.7074C92.5925 59.7074 92.4233 59.8409 92.1132 60.1007L91.3097 60.8733L90.4851 61.4282L90.3724 61.6178C90.4358 61.6178 90.471 61.6178 90.4781 61.6178L91.3379 61.5265C91.3379 61.5265 91.3661 61.5124 91.3802 61.5054L91.9581 61.4211L92.0639 61.4001C92.1062 61.4001 92.2189 61.386 92.3881 61.379C92.5572 61.3649 92.6559 61.3579 92.6841 61.3509L93.8047 61.1332C94.0302 61.07 94.1782 61.0348 94.2558 61.0348C94.3403 61.0348 94.4531 61.0348 94.6081 61.0559C94.7632 61.07 94.883 61.084 94.9676 61.1051C95.0522 61.1262 95.1086 61.1472 95.1508 61.1683L95.5173 61.4141C95.616 61.6318 95.6724 61.7793 95.6724 61.8355C95.6724 61.8987 95.6724 61.976 95.6724 62.0743C95.6724 62.1726 95.6583 62.2288 95.6371 62.2499C95.623 62.271 95.4539 62.278 95.1367 62.278L94.4531 62.2569C94.2839 62.1375 94.1289 62.0673 94.002 62.0322C93.8681 61.9971 93.6708 62.0181 93.3889 62.0954C93.114 62.1726 92.9589 62.2078 92.9378 62.2078L92.6488 62.2499L91.782 62.3763C91.5776 62.4044 91.4225 62.4255 91.3238 62.4395L90.4781 62.594C90.3442 62.6221 90.2596 62.6362 90.2173 62.6432L89.9565 62.7064L89.8367 62.7205L89.7381 62.868C89.5266 62.7766 89.4139 62.7275 89.3998 62.7064L88.8359 62.2429V61.9338L89.0192 61.7021C89.0685 61.7021 89.1108 61.688 89.1319 61.681L89.4491 61.1332C89.4491 61.1332 89.5901 61.0559 89.8015 60.9646C90.0129 60.8733 90.2948 60.6205 90.6402 60.2131C90.9855 59.7987 91.3309 59.4546 91.6833 59.1596C92.0286 58.8716 92.2189 58.7101 92.2471 58.682L92.5854 58.2746C92.5854 58.2746 92.6982 58.1763 92.9096 57.9937C93.121 57.8111 93.255 57.6777 93.3184 57.5863L93.5087 57.186L93.6003 57.0315C93.6214 56.9823 93.6426 56.9261 93.6567 56.87C93.6708 56.8138 93.6778 56.7506 93.6849 56.6874C93.6849 56.6241 93.6849 56.568 93.6849 56.5258C93.6708 56.4837 93.6567 56.4415 93.6285 56.3994C93.6003 56.3573 93.5792 56.3221 93.551 56.3011C93.5228 56.28 93.4875 56.2519 93.4312 56.2238C93.3748 56.1957 93.1422 56.1465 92.7264 56.0763C92.3105 56.0061 92.0216 55.992 91.8383 56.0272C91.7679 56.0412 91.6833 56.0763 91.5705 56.1185C91.4577 56.1606 91.3873 56.1887 91.3591 56.1957L91.1124 56.2168C91.1124 56.2168 91.0067 56.2589 90.8446 56.3221C90.6825 56.3924 90.5768 56.4767 90.5345 56.582L90.5063 57.0104L90.323 57.3686V57.5934C90.3089 57.7128 90.2667 57.776 90.2032 57.783C90.1398 57.79 90.0764 57.769 90.0129 57.7128L89.7381 57.4529L89.1954 57.495C89.1038 57.4669 89.0474 57.3827 89.0262 57.2422C89.0121 57.1369 89.0403 57.0104 89.1108 56.8629L89.287 56.4837L90.0341 55.8445H90.027Z" fill="white"/>
<path d="M97.8684 62.7699C97.6429 62.7699 97.4456 62.7419 97.2694 62.6857C97.0932 62.6295 96.9029 62.5241 96.6985 62.3766C96.4941 62.2291 96.2968 62.0676 96.0994 61.9061C95.9091 61.7375 95.74 61.576 95.599 61.4074C95.4581 61.2388 95.3242 61.0141 95.1903 60.7261C95.0563 60.4382 95.007 60.1853 95.0281 59.9606L95.0775 59.1529C95.1832 58.9352 95.2889 58.7174 95.4017 58.5067C95.5145 58.289 95.5779 58.1626 95.6061 58.1134L95.8598 57.5445C95.9514 57.3689 96.0712 57.2214 96.2122 57.081C96.3532 56.9475 96.5364 56.8141 96.7549 56.6947C96.9734 56.5753 97.1919 56.477 97.4103 56.4138C97.6288 56.3505 97.8473 56.3154 98.0587 56.3154C98.2138 56.3154 98.4746 56.3646 98.8551 56.4489C99.2287 56.5332 99.4683 56.5964 99.567 56.6455L100.124 57.088L100.61 57.4392C100.695 57.5235 100.807 57.7061 100.934 57.9729L101.16 58.4576C101.28 58.7596 101.336 59.0335 101.322 59.2723C101.308 59.4479 101.23 59.7218 101.082 60.087C100.941 60.4522 100.822 60.7612 100.737 61.0141C100.652 61.2669 100.582 61.4144 100.54 61.4636L100.229 61.8499C100.11 61.9552 100.004 62.0536 99.9123 62.1449C99.8137 62.2362 99.715 62.3134 99.6163 62.3766C99.5177 62.4469 99.3978 62.496 99.271 62.5241L98.8058 62.6505C98.4041 62.7208 98.094 62.7559 97.8684 62.7559V62.7699ZM96.2192 59.8412C96.2968 60.1291 96.3743 60.382 96.4448 60.5927C96.5153 60.8034 96.6069 60.993 96.7126 61.1546C96.8183 61.3161 96.9522 61.4636 97.1002 61.6181C97.2482 61.7656 97.361 61.8429 97.4244 61.8499L98.0305 61.9974L98.4675 62.0536C98.5873 62.0325 98.7001 62.0044 98.8129 61.9833C98.9186 61.9552 99.0102 61.9201 99.0807 61.878C99.1512 61.8358 99.2569 61.7094 99.3908 61.5198C99.5247 61.3231 99.6093 61.1756 99.6516 61.0773L99.8419 60.1432L100.039 59.6164C100.053 59.5322 100.025 59.2653 99.9617 58.8158L99.87 58.2117C99.8066 58.001 99.722 57.8325 99.5952 57.7131L99.4401 57.5515L98.9397 57.2706C98.7071 57.1372 98.5028 57.0599 98.3407 57.0318C98.1786 57.0037 97.9883 57.0318 97.7909 57.088C97.5865 57.1512 97.4174 57.2636 97.2764 57.4041C97.1355 57.5515 96.9522 57.7903 96.7337 58.1204C96.5082 58.4576 96.3884 58.6753 96.3672 58.7736L96.1699 59.4549L96.2192 59.8412Z" fill="white"/>
<path d="M107.506 58.3378C107.464 58.3027 107.4 58.2324 107.316 58.1341C107.231 58.0287 107.154 57.9023 107.09 57.7408C107.027 57.5793 106.999 57.4247 106.992 57.2632C106.992 57.1087 106.992 56.9752 106.992 56.8699C106.992 56.7575 107.02 56.6592 107.055 56.5538C107.09 56.4555 107.182 56.308 107.323 56.1184C107.464 55.9287 107.563 55.8234 107.626 55.7953L108.31 55.409C108.648 55.3177 108.944 55.2475 109.198 55.1983C109.451 55.1492 109.642 55.1281 109.761 55.1351L110.741 55.1772C110.882 55.1983 111.065 55.2334 111.277 55.2756C111.488 55.3177 111.693 55.395 111.883 55.5214C112.073 55.6408 112.228 55.7672 112.334 55.9007C112.447 56.0341 112.531 56.1886 112.588 56.3782C112.644 56.5609 112.686 56.7435 112.715 56.912C112.743 57.0876 112.743 57.214 112.722 57.3053C112.7 57.3966 112.658 57.5231 112.595 57.6916C112.531 57.8602 112.482 57.9726 112.454 58.0287C112.426 58.0849 112.362 58.1622 112.278 58.2535C112.186 58.3448 112.137 58.401 112.123 58.408L112.031 58.4923C112.123 58.5415 112.221 58.5976 112.313 58.6609C112.404 58.717 112.531 58.8294 112.686 58.991C112.841 59.1525 112.982 59.3492 113.109 59.5669C113.236 59.7916 113.292 60.0866 113.278 60.4588C113.264 60.8311 113.229 61.0839 113.173 61.2104C113.116 61.3368 113.046 61.4702 112.975 61.6037C112.898 61.7371 112.841 61.8354 112.792 61.8916C112.743 61.9478 112.651 62.018 112.524 62.0953L112.383 62.1796C112.235 62.2709 112.13 62.3341 112.073 62.3622C112.017 62.3903 111.812 62.4324 111.467 62.4886L111.136 62.5518L110.805 62.608C110.53 62.6502 110.318 62.6782 110.184 62.6923C110.043 62.6993 109.888 62.7063 109.712 62.7134C109.536 62.7134 109.374 62.7134 109.226 62.6923C109.078 62.6782 108.866 62.6361 108.584 62.5799C108.303 62.5237 108.14 62.4746 108.091 62.4324L107.189 61.9057C107.154 61.8706 107.055 61.7722 106.907 61.6107C106.759 61.4491 106.682 61.3227 106.675 61.2384L106.597 60.8311C106.569 60.6836 106.555 60.5782 106.555 60.501V60.213C106.555 60.1217 106.555 60.0515 106.555 60.0023C106.555 59.9532 106.583 59.8829 106.632 59.7987L106.837 59.3913C107.034 59.1946 107.189 59.0471 107.302 58.9488C107.422 58.8505 107.506 58.7873 107.57 58.7662L107.873 58.6257L107.506 58.3588V58.3378ZM110.494 58.998C110.269 58.998 110.107 59.005 110.001 59.012C109.902 59.012 109.853 59.0191 109.853 59.012L109.451 58.991C109.268 59.0261 109.113 59.0542 108.979 59.0823C108.845 59.1104 108.768 59.1384 108.725 59.1665L108.429 59.3492C108.232 59.4615 108.098 59.5599 108.014 59.6512C107.929 59.7425 107.88 59.8759 107.859 60.0515L107.781 60.4729L107.83 60.7468C107.908 60.9294 107.971 61.0488 108.028 61.1191C108.077 61.1893 108.197 61.3017 108.366 61.4702C108.542 61.6388 108.718 61.7301 108.902 61.7441L109.501 61.8425L109.881 61.8073C110.128 61.8003 110.368 61.7933 110.6 61.7793C110.826 61.7722 111.03 61.7371 111.206 61.6739C111.382 61.6107 111.552 61.4913 111.714 61.3017C111.876 61.112 111.975 60.9575 112.003 60.8381C112.031 60.7187 112.045 60.5361 112.038 60.3043C112.038 60.0726 112.003 59.8759 111.932 59.7073C111.862 59.5458 111.777 59.4405 111.657 59.4053L110.917 59.1174L110.494 58.998ZM109.987 58.2816L110.586 58.1903L110.819 58.1622C110.931 58.092 111.044 58.0147 111.164 57.9164C111.284 57.818 111.361 57.7127 111.39 57.5933C111.425 57.4739 111.446 57.3053 111.467 57.0806C111.488 56.8558 111.488 56.6873 111.467 56.5749C111.446 56.4625 111.382 56.3782 111.284 56.3221L111.009 56.1605L110.438 56.013C110.135 56.0411 109.881 56.0481 109.663 56.0552C109.444 56.0552 109.275 56.0692 109.148 56.0903C109.028 56.1114 108.888 56.1605 108.74 56.2448C108.584 56.3291 108.465 56.4204 108.38 56.5117C108.296 56.603 108.253 56.7083 108.267 56.8277V57.3264C108.331 57.5652 108.408 57.7197 108.493 57.79C108.577 57.8602 108.641 57.9023 108.69 57.9234L109.169 58.1622C109.606 58.2675 109.881 58.3097 109.987 58.2816Z" fill="white"/>
<path d="M115.56 62.7699C115.334 62.7699 115.137 62.7419 114.961 62.6857C114.785 62.6295 114.594 62.5241 114.39 62.3766C114.186 62.2291 113.988 62.0676 113.791 61.9061C113.601 61.7375 113.431 61.576 113.29 61.4074C113.149 61.2388 113.016 61.0141 112.882 60.7261C112.748 60.4382 112.698 60.1853 112.72 59.9606L112.769 59.1529C112.875 58.9352 112.98 58.7174 113.093 58.5067C113.206 58.289 113.276 58.1626 113.297 58.1134L113.551 57.5445C113.643 57.3689 113.763 57.2214 113.904 57.081C114.045 56.9475 114.228 56.8141 114.446 56.6947C114.665 56.5753 114.883 56.477 115.102 56.4138C115.32 56.3505 115.539 56.3154 115.75 56.3154C115.905 56.3154 116.166 56.3646 116.547 56.4489C116.92 56.5332 117.16 56.5964 117.258 56.6455L117.815 57.088L118.309 57.4392C118.393 57.5235 118.506 57.7061 118.633 57.9729L118.858 58.4576C118.978 58.7596 119.034 59.0335 119.02 59.2723C119.006 59.4479 118.929 59.7218 118.781 60.087C118.64 60.4522 118.52 60.7612 118.435 61.0141C118.351 61.2669 118.28 61.4144 118.238 61.4636L117.928 61.8499C117.815 61.9552 117.702 62.0536 117.611 62.1449C117.512 62.2362 117.413 62.3134 117.315 62.3766C117.216 62.4469 117.096 62.496 116.969 62.5241L116.504 62.6505C116.103 62.7208 115.792 62.7559 115.567 62.7559L115.56 62.7699ZM113.911 59.8412C113.988 60.1291 114.066 60.382 114.136 60.5927C114.207 60.8034 114.298 60.993 114.404 61.1546C114.51 61.3161 114.644 61.4636 114.792 61.6181C114.94 61.7656 115.052 61.8429 115.116 61.8499L115.722 61.9974L116.159 62.0536C116.279 62.0325 116.391 62.0044 116.504 61.9833C116.61 61.9552 116.702 61.9201 116.772 61.878C116.843 61.8358 116.948 61.7094 117.082 61.5198C117.216 61.3231 117.301 61.1756 117.343 61.0773L117.533 60.1432L117.731 59.6164C117.745 59.5322 117.717 59.2653 117.653 58.8158L117.561 58.2117C117.498 58.001 117.413 57.8325 117.287 57.7131L117.132 57.5515L116.631 57.2706C116.399 57.1372 116.194 57.0599 116.032 57.0318C115.87 57.0037 115.68 57.0318 115.482 57.088C115.278 57.1512 115.109 57.2636 114.968 57.4041C114.827 57.5515 114.644 57.7903 114.425 58.1204C114.207 58.4576 114.08 58.6753 114.059 58.7736L113.861 59.4549L113.911 59.8412Z" fill="white"/>
<path d="M86.7516 56.1733L84.7422 61.9463L85.5878 62.2386L87.5973 56.4657L86.7516 56.1733Z" fill="#939494"/>
<path d="M104.452 56.1708L102.441 61.9434L103.287 62.2358L105.297 56.4632L104.452 56.1708Z" fill="#939494"/>
<path d="M61.9896 22.7567C61.9896 27.8276 57.8666 31.9363 52.778 31.9363C47.6894 31.9363 43.5664 27.8276 43.5664 22.7567C43.5664 17.6858 47.6894 13.5771 52.778 13.5771C57.8666 13.5771 61.9896 17.6858 61.9896 22.7567Z" fill="url(#paint23_radial_982_160651)"/>
<mask id="mask8_982_160651" style="mask-type:luminance" maskUnits="userSpaceOnUse" x="43" y="13" width="19" height="19">
<path d="M61.9896 22.7567C61.9896 27.8276 57.8666 31.9363 52.778 31.9363C47.6894 31.9363 43.5664 27.8276 43.5664 22.7567C43.5664 17.6858 47.6894 13.5771 52.778 13.5771C57.8666 13.5771 61.9896 17.6858 61.9896 22.7567Z" fill="white"/>
</mask>
<g mask="url(#mask8_982_160651)">
<path opacity="0.5" fill-rule="evenodd" clip-rule="evenodd" d="M50.2121 26.5847C53.9827 28.7549 58.6555 27.4486 60.5936 24.1335C62.3274 21.1626 61.3337 17.4192 58.4229 15.4315C55.3923 13.3596 50.9733 13.6476 48.4078 16.4148C45.5253 19.5332 46.2512 24.3021 50.2121 26.5847ZM50.7265 25.442C54.0792 27.3717 58.234 26.2102 59.9574 23.2625C61.499 20.6209 60.6154 17.2924 58.0272 15.5251C55.3326 13.6828 51.4033 13.9388 49.1223 16.3994C46.5592 19.1721 47.2047 23.4124 50.7265 25.442Z" fill="url(#paint24_linear_982_160651)"/>
<path d="M51.6141 15.0166C53.214 15.1781 54.8632 15.5082 56.5476 15.9507C57.3934 16.1684 58.0347 16.5688 58.4717 17.0955C58.9087 17.6223 59.1131 18.1631 59.0496 18.7531C59.0003 19.2447 58.7748 19.645 58.373 19.9541C58.1052 20.1648 57.7387 20.3123 57.2665 20.3895C57.922 20.6494 58.3942 20.9725 58.6549 21.3728C58.9228 21.7731 59.0073 22.2367 58.9087 22.7915C58.8241 23.241 58.6338 23.6484 58.3307 24.0136C58.0277 24.3788 57.6612 24.6668 57.2172 24.8704C56.9423 24.9969 56.5547 25.0812 56.0472 25.1022C55.3706 25.1303 54.9266 25.1163 54.7081 25.0882C53.0166 24.8634 51.3111 24.4701 49.6055 23.9995C50.0777 21.127 50.8318 18.1209 51.6 15.0166H51.6141ZM53.6016 19.0621C54.0174 19.1323 54.4333 19.2026 54.8491 19.2798C55.3002 19.3571 55.6244 19.336 55.8217 19.2166C56.019 19.0972 56.1389 18.8935 56.1811 18.6056C56.2164 18.3387 56.16 18.1209 56.0049 17.9313C55.8499 17.7487 55.5609 17.6082 55.1381 17.524C54.7222 17.4397 54.3135 17.3624 53.9047 17.2922C53.806 17.8822 53.7003 18.4651 53.5875 19.0551L53.6016 19.0621ZM52.9391 22.7213C53.4395 22.8126 53.947 22.8969 54.4474 22.9741C54.9548 23.0514 55.3354 23.0092 55.575 22.8618C55.8147 22.7143 55.9556 22.4895 56.012 22.1945C56.0543 21.9206 55.9908 21.6888 55.8076 21.4922C55.6314 21.2955 55.279 21.1621 54.7645 21.0778C54.2641 21.0005 53.7708 20.9163 53.2704 20.832C53.1576 21.4571 53.0448 22.0892 52.9321 22.7143L52.9391 22.7213Z" fill="url(#paint25_radial_982_160651)"/>
</g>
<path d="M56.4171 39.3252C56.4171 45.1405 51.6809 49.8603 45.8453 49.8603C40.0096 49.8603 35.2734 45.1476 35.2734 39.3252C35.2734 33.5027 40.0026 28.79 45.8453 28.79C51.688 28.79 56.4171 33.5027 56.4171 39.3252Z" fill="url(#paint26_radial_982_160651)"/>
<mask id="mask9_982_160651" style="mask-type:luminance" maskUnits="userSpaceOnUse" x="35" y="28" width="22" height="22">
<path d="M56.4171 39.3252C56.4171 45.1405 51.6809 49.8603 45.8453 49.8603C40.0096 49.8603 35.2734 45.1476 35.2734 39.3252C35.2734 33.5027 40.0026 28.79 45.8453 28.79C51.688 28.79 56.4171 33.5027 56.4171 39.3252Z" fill="white"/>
</mask>
<g mask="url(#mask9_982_160651)">
<path opacity="0.5" fill-rule="evenodd" clip-rule="evenodd" d="M49.3695 48.954C53.4784 47.8584 56.1707 43.9533 55.5716 40.0132C54.9444 35.8694 50.8918 32.9055 46.2896 33.6149C41.3702 34.3804 38.1281 38.9246 39.2981 43.4828C40.4046 47.7951 45.0069 50.1199 49.3695 48.954ZM49.6315 48.5073C53.2797 47.5345 55.6702 44.0673 55.1383 40.5689C54.5813 36.8897 50.9832 34.2582 46.8969 34.888C42.5291 35.5677 39.6505 39.6024 40.6893 43.6495C41.6718 47.4784 45.758 49.5425 49.6315 48.5073Z" fill="url(#paint27_linear_982_160651)"/>
</g>
<path d="M44 37.5375C45.8483 36.7437 47.6628 36.1502 49.4299 36.0071C50.3101 35.9356 51.021 36.2503 51.6032 36.8009C52.1855 37.3516 52.5647 37.9881 52.7271 38.6889C52.8558 39.2753 52.7881 39.7616 52.5105 40.1978C52.3277 40.491 52.0162 40.7485 51.5829 40.9702C52.3141 41.0631 52.8829 41.2991 53.2756 41.6496C53.6682 42 53.912 42.4362 53.9797 42.9797C54.0339 43.4302 53.9526 43.8522 53.7495 44.2884C53.5464 44.7246 53.2485 45.1394 52.8693 45.5184C52.6324 45.7544 52.2803 46.0119 51.7996 46.2836C51.1699 46.6412 50.7569 46.8486 50.5471 46.9201C48.9425 47.5208 47.3785 47.9213 45.889 47.9857C44.9343 44.267 44.149 40.7771 44 37.5375ZM47.4936 40.8057C47.9336 40.7199 48.3737 40.6341 48.8138 40.5554C49.2877 40.4696 49.5992 40.3266 49.7617 40.1192C49.9174 39.9118 49.9648 39.64 49.9106 39.2896C49.8632 38.9678 49.7278 38.7318 49.5179 38.5673C49.3081 38.41 48.9763 38.3599 48.5227 38.4314C48.0826 38.503 47.6425 38.5959 47.2024 38.696C47.2905 39.3969 47.392 40.0977 47.4936 40.7985V40.8057ZM48.1909 45.1823C48.6852 45.0751 49.1862 44.9535 49.6804 44.8248C50.1882 44.696 50.5335 44.4887 50.7163 44.2384C50.8991 43.9881 50.9736 43.6948 50.9262 43.3659C50.8856 43.0584 50.7434 42.8295 50.5064 42.6865C50.2695 42.5363 49.8835 42.5149 49.3554 42.6221C48.8409 42.7294 48.3331 42.8295 47.8253 42.9297C47.9472 43.6805 48.0691 44.4314 48.1909 45.1823Z" fill="url(#paint28_radial_982_160651)"/>
<defs>
<radialGradient id="paint0_radial_982_160651" cx="0" cy="0" r="1" gradientUnits="userSpaceOnUse" gradientTransform="translate(92.8758 20.4176) scale(11.9603 11.9187)">
<stop offset="0.1" stop-color="#E5E5E6"/>
<stop offset="0.21" stop-color="#DBDBDC"/>
<stop offset="0.38" stop-color="#C2C2C3"/>
<stop offset="0.61" stop-color="#9A9A9A"/>
<stop offset="0.7" stop-color="#888888"/>
<stop offset="1" stop-color="#595757"/>
</radialGradient>
<linearGradient id="paint1_linear_982_160651" x1="94.9768" y1="14.6309" x2="94.9768" y2="28.5504" gradientUnits="userSpaceOnUse">
<stop stop-color="white" stop-opacity="0.39"/>
<stop offset="1" stop-color="white" stop-opacity="0.72"/>
</linearGradient>
<radialGradient id="paint2_radial_982_160651" cx="0" cy="0" r="1" gradientUnits="userSpaceOnUse" gradientTransform="translate(95.0987 20.9609) rotate(28.4274) scale(9.27965 9.76617)">
<stop offset="0.265625" stop-color="white"/>
<stop offset="1" stop-color="white" stop-opacity="0"/>
</radialGradient>
<radialGradient id="paint3_radial_982_160651" cx="0" cy="0" r="1" gradientUnits="userSpaceOnUse" gradientTransform="translate(78.6876 19.6383) scale(11.9673 11.9258)">
<stop offset="0.1" stop-color="#F3B3CF"/>
<stop offset="0.17" stop-color="#EEA9CA"/>
<stop offset="0.28" stop-color="#E390BF"/>
<stop offset="0.42" stop-color="#D167AE"/>
<stop offset="0.58" stop-color="#B82F95"/>
<stop offset="0.7" stop-color="#A40081"/>
<stop offset="1" stop-color="#4C076C"/>
</radialGradient>
<linearGradient id="paint4_linear_982_160651" x1="78.5684" y1="16.742" x2="83.5348" y2="28.694" gradientUnits="userSpaceOnUse">
<stop stop-color="white" stop-opacity="0.71"/>
<stop offset="1" stop-color="white" stop-opacity="0.29"/>
</linearGradient>
<radialGradient id="paint5_radial_982_160651" cx="0" cy="0" r="1" gradientUnits="userSpaceOnUse" gradientTransform="translate(79.8459 23.4025) rotate(92.1) scale(11.0436 11.8066)">
<stop offset="0.167919" stop-color="white"/>
<stop offset="1" stop-color="white" stop-opacity="0"/>
</radialGradient>
<radialGradient id="paint6_radial_982_160651" cx="0" cy="0" r="1" gradientUnits="userSpaceOnUse" gradientTransform="translate(106.673 13.0155) scale(11.6008 11.5605)">
<stop offset="0.1" stop-color="#DADF00"/>
<stop offset="0.18" stop-color="#D0DC03"/>
<stop offset="0.3" stop-color="#B7D30C"/>
<stop offset="0.46" stop-color="#8EC61A"/>
<stop offset="0.65" stop-color="#56B42E"/>
<stop offset="0.7" stop-color="#44AF35"/>
<stop offset="1" stop-color="#006428"/>
</radialGradient>
<linearGradient id="paint7_linear_982_160651" x1="106.85" y1="12.0899" x2="112.315" y2="20.7477" gradientUnits="userSpaceOnUse">
<stop stop-color="white"/>
<stop offset="1" stop-color="white" stop-opacity="0.24"/>
</linearGradient>
<radialGradient id="paint8_radial_982_160651" cx="0" cy="0" r="1" gradientUnits="userSpaceOnUse" gradientTransform="translate(59.4534 44.1075) scale(11.6783 11.6378)">
<stop offset="0.1" stop-color="#DCE000"/>
<stop offset="0.18" stop-color="#D2DD03"/>
<stop offset="0.3" stop-color="#B9D40C"/>
<stop offset="0.46" stop-color="#90C71A"/>
<stop offset="0.64" stop-color="#58B52D"/>
<stop offset="0.7" stop-color="#44AF35"/>
<stop offset="1" stop-color="#006428"/>
</radialGradient>
<linearGradient id="paint9_linear_982_160651" x1="64.8146" y1="40.3176" x2="56.8465" y2="51.6147" gradientUnits="userSpaceOnUse">
<stop stop-color="white"/>
<stop offset="0.0001" stop-color="white" stop-opacity="0.67"/>
<stop offset="1" stop-color="white" stop-opacity="0.32"/>
</linearGradient>
<radialGradient id="paint10_radial_982_160651" cx="0" cy="0" r="1" gradientUnits="userSpaceOnUse" gradientTransform="translate(114.072 38.8407) scale(11.5797 11.5395)">
<stop offset="0.1" stop-color="#BAE2F8"/>
<stop offset="0.16" stop-color="#B0DEF7"/>
<stop offset="0.27" stop-color="#97D5F5"/>
<stop offset="0.41" stop-color="#6EC6F1"/>
<stop offset="0.57" stop-color="#36B2EC"/>
<stop offset="0.7" stop-color="#009FE8"/>
<stop offset="1" stop-color="#004097"/>
</radialGradient>
<linearGradient id="paint11_linear_982_160651" x1="113.883" y1="31.0811" x2="113.883" y2="47.7118" gradientUnits="userSpaceOnUse">
<stop stop-color="white" stop-opacity="0.71"/>
<stop offset="1" stop-color="white" stop-opacity="0.33"/>
</linearGradient>
<radialGradient id="paint12_radial_982_160651" cx="0" cy="0" r="1" gradientUnits="userSpaceOnUse" gradientTransform="translate(80.5317 37.9347) scale(11.4387 11.399)">
<stop offset="0.1" stop-color="#FCCF00"/>
<stop offset="0.19" stop-color="#F5C500"/>
<stop offset="0.34" stop-color="#E3AC00"/>
<stop offset="0.54" stop-color="#C68300"/>
<stop offset="0.7" stop-color="#A95B00"/>
<stop offset="1" stop-color="#680000"/>
</radialGradient>
<linearGradient id="paint13_linear_982_160651" x1="78.5105" y1="44.7389" x2="86.6969" y2="33.9876" gradientUnits="userSpaceOnUse">
<stop stop-color="white" stop-opacity="0.61"/>
<stop offset="1" stop-color="white" stop-opacity="0.34"/>
</linearGradient>
<radialGradient id="paint14_radial_982_160651" cx="0" cy="0" r="1" gradientUnits="userSpaceOnUse" gradientTransform="translate(82.508 38.7135) rotate(93.1893) scale(8.5669 8.57277)">
<stop offset="0.32877" stop-color="white"/>
<stop offset="1" stop-color="white" stop-opacity="0"/>
</radialGradient>
<radialGradient id="paint15_radial_982_160651" cx="0" cy="0" r="1" gradientUnits="userSpaceOnUse" gradientTransform="translate(59.5152 46.8679) rotate(98.157) scale(9.58572 3.85275)">
<stop offset="0.384652" stop-color="white"/>
<stop offset="1" stop-color="white" stop-opacity="0"/>
</radialGradient>
<radialGradient id="paint16_radial_982_160651" cx="0" cy="0" r="1" gradientUnits="userSpaceOnUse" gradientTransform="translate(105.865 14.4786) rotate(90.8809) scale(8.71484 8.01882)">
<stop offset="0.312761" stop-color="white"/>
<stop offset="1" stop-color="white" stop-opacity="0"/>
</radialGradient>
<radialGradient id="paint17_radial_982_160651" cx="0" cy="0" r="1" gradientUnits="userSpaceOnUse" gradientTransform="translate(63.991 22.6516) scale(11.0652 11.0268)">
<stop offset="0.1" stop-color="#FFE100"/>
<stop offset="0.19" stop-color="#FDD700"/>
<stop offset="0.34" stop-color="#F9BE00"/>
<stop offset="0.53" stop-color="#F29500"/>
<stop offset="0.7" stop-color="#EC6C00"/>
<stop offset="1" stop-color="#E50012"/>
</radialGradient>
<linearGradient id="paint18_linear_982_160651" x1="68.4987" y1="22.4995" x2="71.4987" y2="32.4995" gradientUnits="userSpaceOnUse">
<stop stop-color="white" stop-opacity="0.67"/>
<stop offset="1" stop-color="white" stop-opacity="0.3"/>
</linearGradient>
<radialGradient id="paint19_radial_982_160651" cx="0" cy="0" r="1" gradientUnits="userSpaceOnUse" gradientTransform="translate(69.3421 27.5225) rotate(81.1574) scale(10.3186 5.17328)">
<stop stop-color="white"/>
<stop offset="1" stop-color="white" stop-opacity="0"/>
</radialGradient>
<radialGradient id="paint20_radial_982_160651" cx="0" cy="0" r="1" gradientUnits="userSpaceOnUse" gradientTransform="translate(96.0932 34.5422) scale(13.7293 13.6816)">
<stop offset="0.1" stop-color="#F6C8DD"/>
<stop offset="0.16" stop-color="#F5BED7"/>
<stop offset="0.26" stop-color="#F2A5C8"/>
<stop offset="0.39" stop-color="#EF7CAF"/>
<stop offset="0.54" stop-color="#EA438D"/>
<stop offset="0.7" stop-color="#E40065"/>
<stop offset="1" stop-color="#90004F"/>
</radialGradient>
<linearGradient id="paint21_linear_982_160651" x1="97.3233" y1="33.72" x2="97.3233" y2="49.1113" gradientUnits="userSpaceOnUse">
<stop stop-color="white"/>
<stop offset="1" stop-color="white" stop-opacity="0"/>
</linearGradient>
<radialGradient id="paint22_radial_982_160651" cx="0" cy="0" r="1" gradientUnits="userSpaceOnUse" gradientTransform="translate(96.5852 41.9181) rotate(105.367) scale(9.00867 8.23222)">
<stop offset="0.352054" stop-color="white"/>
<stop offset="1" stop-color="white" stop-opacity="0"/>
</radialGradient>
<radialGradient id="paint23_radial_982_160651" cx="0" cy="0" r="1" gradientUnits="userSpaceOnUse" gradientTransform="translate(50.8751 19.1959) scale(11.9673 11.9258)">
<stop offset="0.1" stop-color="#FCCF00"/>
<stop offset="0.19" stop-color="#F5C500"/>
<stop offset="0.34" stop-color="#E3AC00"/>
<stop offset="0.54" stop-color="#C68300"/>
<stop offset="0.7" stop-color="#A95B00"/>
<stop offset="1" stop-color="#680000"/>
</radialGradient>
<linearGradient id="paint24_linear_982_160651" x1="53.9988" y1="27.0002" x2="56.4988" y2="14.5002" gradientUnits="userSpaceOnUse">
<stop stop-color="white" stop-opacity="0.67"/>
<stop offset="1" stop-color="white" stop-opacity="0.23"/>
</linearGradient>
<radialGradient id="paint25_radial_982_160651" cx="0" cy="0" r="1" gradientUnits="userSpaceOnUse" gradientTransform="translate(54.3332 20.0671) rotate(97.182) scale(10.8326 10.1404)">
<stop offset="0.252935" stop-color="white"/>
<stop offset="1" stop-color="white" stop-opacity="0"/>
</radialGradient>
<radialGradient id="paint26_radial_982_160651" cx="0" cy="0" r="1" gradientUnits="userSpaceOnUse" gradientTransform="translate(43.6604 35.2375) scale(13.7293 13.6816)">
<stop offset="0.1" stop-color="#FFD800"/>
<stop offset="0.16" stop-color="#FDCE00"/>
<stop offset="0.25" stop-color="#FAB502"/>
<stop offset="0.38" stop-color="#F58C06"/>
<stop offset="0.52" stop-color="#EF530B"/>
<stop offset="0.68" stop-color="#E60B11"/>
<stop offset="0.7" stop-color="#E50012"/>
<stop offset="1" stop-color="#900000"/>
</radialGradient>
<linearGradient id="paint27_linear_982_160651" x1="45.6056" y1="34.9151" x2="52.1546" y2="47.6858" gradientUnits="userSpaceOnUse">
<stop stop-color="white" stop-opacity="0.67"/>
<stop offset="0.932292" stop-color="white" stop-opacity="0.21"/>
</linearGradient>
<radialGradient id="paint28_radial_982_160651" cx="0" cy="0" r="1" gradientUnits="userSpaceOnUse" gradientTransform="translate(48.998 41.9914) rotate(97.2172) scale(11.8129 9.84954)">
<stop offset="0.324486" stop-color="white"/>
<stop offset="1" stop-color="white" stop-opacity="0"/>
</radialGradient>
</defs>
</svg>
