<svg width="157" height="70" viewBox="0 0 157 70" fill="none" xmlns="http://www.w3.org/2000/svg">
<g clip-path="url(#clip0_982_160647)">
<path d="M74.7271 14.8045C75.0771 10.7426 78.6336 7.73659 82.6821 8.08856C86.7211 8.44052 89.7101 12.0173 89.3601 16.0887C89.0102 20.1506 85.4441 23.1566 81.4051 22.8046C77.3661 22.4526 74.3771 18.8759 74.7271 14.814V14.8045Z" fill="url(#paint0_radial_982_160647)"/>
<path d="M91.5063 14.6899C91.7806 11.5127 94.5521 9.18211 97.7019 9.44847C100.852 9.72433 103.179 12.5115 102.914 15.6792C102.64 18.847 99.868 21.1966 96.7182 20.9207C93.5683 20.6448 91.2319 17.8481 91.5063 14.6899Z" fill="url(#paint1_radial_982_160647)"/>
<path d="M63.2744 23.6225C63.6812 18.8852 67.8337 15.3751 72.5442 15.7936C77.2548 16.2027 80.7452 20.3787 80.3385 25.116C79.9223 29.8438 75.7698 33.3635 71.0686 32.9449C66.358 32.5359 62.8677 28.3598 63.2744 23.6225Z" fill="url(#paint2_radial_982_160647)"/>
<path d="M103.957 20.4357C104.212 17.8388 106.511 15.9363 109.093 16.2026C111.675 16.4499 113.558 18.771 113.302 21.368C113.047 23.9554 110.748 25.858 108.166 25.6011C105.584 25.3348 103.701 23.0232 103.957 20.4357Z" fill="url(#paint3_radial_982_160647)"/>
<path d="M146.17 29.5206C144.449 26.781 141.062 25.1543 137.118 25.1543C133.173 25.1543 129.286 26.5717 126.581 28.9498C126.779 28.5218 126.893 28.2554 126.893 28.2554C127.006 28.0176 127.063 27.7608 127.063 27.5039C127.063 27.1615 126.968 26.819 126.779 26.5241C126.448 26.0009 125.871 25.687 125.266 25.687H108.467C107.833 25.687 107.246 26.0295 106.934 26.5622C106.934 26.5527 106.915 26.5336 106.906 26.5146C106.575 26.0104 106.007 25.6965 105.402 25.6965H82.0003C81.3003 25.6965 80.6571 26.1056 80.3733 26.7429L71.0373 46.8812C70.7819 47.4329 70.8197 48.0988 71.1508 48.622C71.4819 49.1357 72.0589 49.4591 72.6737 49.4591H79.7585C80.1652 49.4591 80.5531 49.3164 80.8747 49.0691L81.4611 48.5934C83.0124 47.3568 84.611 46.7765 86.5028 46.7765C87.4865 46.7765 88.2338 47.0619 88.6027 47.5756C89.0662 48.232 88.8486 49.1547 88.6783 49.6493C88.3189 50.7052 87.5054 51.7136 86.3893 52.5031C85.169 53.3593 83.7502 53.8349 82.3881 53.8349C80.2504 53.8349 78.614 53.131 77.9991 51.9609L77.5167 51.0382C77.2802 50.6006 76.883 50.2677 76.4006 50.1345C75.9181 50.0013 75.4074 50.0774 74.9817 50.3343L65.4565 56.1845C65.0025 56.4604 64.6998 56.9265 64.6146 57.4592C64.539 57.9824 64.6998 58.5246 65.0497 58.9242L65.8443 59.8184C69.2495 63.671 73.2696 65.3167 79.295 65.3167C89.0567 65.3167 96.1226 59.6471 99.471 54.3391C99.84 53.7588 100.171 53.169 100.464 52.5792C102.564 54.7767 105.591 55.8896 109.469 55.8896C117.49 55.8896 123.336 50.4579 124.906 45.226C125.871 45.968 127.318 46.4911 128.614 46.7765C127.517 49.1547 125.502 53.4639 125.502 53.4639C125.389 53.7112 125.332 53.9681 125.332 54.2344C125.332 54.5674 125.427 54.9098 125.616 55.2142C125.947 55.7374 126.524 56.0514 127.139 56.0418L135.292 56.0133C135.954 56.0133 136.55 55.6518 136.862 55.062C137.714 53.4639 145.224 39.4328 146.624 36.4743C147.684 34.2103 147.532 31.68 146.18 29.5301L146.17 29.5206ZM66.5443 53.6066C66.5443 53.6066 66.5632 53.5781 66.5726 53.5686C67.4145 52.3414 68.7482 49.9347 70.6589 46.2058C70.7914 45.9489 70.8576 45.6635 70.8576 45.3877C70.8576 45.0547 70.763 44.7313 70.5927 44.4364C70.3089 43.9608 69.8171 43.6659 69.2874 43.5993C70.2711 42.3817 71.5386 40.365 73.175 37.4351C73.3264 37.1592 73.402 36.8644 73.402 36.56C73.402 36.2365 73.3169 35.9226 73.1561 35.6372C73.0237 35.4089 72.8345 35.2187 72.6169 35.0665C72.6737 34.9999 72.7494 34.9523 72.8061 34.8857C73.8182 33.7252 75.1803 31.5944 76.9586 28.3886C77.11 28.1127 77.1856 27.8083 77.1856 27.5134C77.1856 27.2185 77.1005 26.8856 76.9397 26.5907C76.6181 26.039 76.0316 25.6965 75.3884 25.6965H70.0914C69.609 25.6965 69.155 25.8963 68.8239 26.2483C68.4834 25.9153 68.0577 25.687 67.5753 25.687H49.4897C48.8276 25.6965 48.2316 26.0675 47.91 26.6478L43.871 34.1628L38.347 26.4575C38.0065 25.9819 37.4673 25.6965 36.8903 25.6965H23.8274C23.4018 25.6965 22.995 25.8487 22.664 26.1341L12.3253 34.9904C11.7483 35.485 11.5402 36.2746 11.805 36.988C12.0604 37.7015 12.732 38.1771 13.4887 38.1676H16.194C15.9481 38.3483 15.74 38.5671 15.6076 38.8525L13.8671 42.4768C13.7441 42.7337 13.6874 43 13.6874 43.2664C13.6874 43.5993 13.782 43.9322 13.9617 44.2271C14.2833 44.7503 14.8698 45.0738 15.4846 45.0738C15.4846 45.0738 26.7786 45.0738 30.8649 45.0547C29.3988 48.0798 26.807 53.3973 26.807 53.3973C26.684 53.6542 26.6178 53.9205 26.6178 54.1869C26.6178 54.5198 26.7124 54.8432 26.8921 55.1381C27.2138 55.6613 27.7908 55.9848 28.4056 55.9848L30.4676 56.0038C30.4676 56.0038 30.4109 56.0038 30.392 56.0038C32.9648 56.1275 36.0768 55.1286 37.2025 52.6363C37.2025 52.6363 40.8158 44.9501 42.3103 41.7824L41.7144 43.9988C41.6766 44.151 41.6482 44.3032 41.6482 44.465C41.6482 44.5315 41.6766 44.6172 41.686 44.6837C41.5631 44.8264 41.459 44.9977 41.3833 45.1879C41.3833 45.1879 39.8794 49.0976 39.8131 49.2593C39.7185 49.4401 38.0065 52.6553 38.0065 52.6553C37.8646 52.9217 37.7889 53.2166 37.7889 53.502C37.7889 53.8254 37.874 54.1488 38.0443 54.4247C38.3659 54.9669 38.9524 55.2999 39.5861 55.2999H41.4968C42.263 55.2999 43.0576 55.1572 43.8616 54.8623C43.9467 54.8242 44.0319 54.7957 44.1075 54.7481C44.117 54.7481 44.1264 54.7386 44.1454 54.7196C44.2116 54.9289 44.2967 55.1286 44.4291 55.2999C44.7697 55.747 45.2994 56.0133 45.8574 56.0133H50.9464C51.7599 56.0133 52.4693 55.4616 52.6774 54.672L52.6963 54.6245C53.3111 55.1381 54.1908 55.4521 55.3921 55.5282C55.4299 55.5282 55.4678 55.5282 55.5056 55.5282H56.811C56.9528 55.5282 57.0758 55.4901 57.2082 55.4521C57.5393 55.804 58.0028 56.0038 58.5041 56.0038H61.1432H61.077C63.4512 56.1084 65.2862 55.2903 66.5348 53.5781L66.5443 53.6066Z" fill="white"/>
<path d="M105.393 27.4941C105.147 28.0554 102.414 34.2481 102.31 34.4954C102.035 34.4954 87.8186 34.4954 87.8186 34.4954L87.0902 35.8272L85.8605 38.1102L86.3524 37.9866C87.8091 37.6061 89.3509 37.4063 90.9306 37.4063C94.2034 37.4063 97.0411 38.5478 98.7248 40.5455C100.2 42.3053 100.758 44.6645 100.314 47.366C100.172 48.2127 99.945 49.0783 99.6328 49.963C99.2261 51.1045 98.668 52.246 97.9491 53.3685C94.8466 58.277 88.3199 63.5185 79.2771 63.5185C73.7341 63.5185 70.2248 62.1011 67.1696 58.629C67.1696 58.629 66.6588 58.0487 66.375 57.7348C66.7912 57.478 75.5313 52.1129 75.9097 51.875C76.0516 52.1604 76.3921 52.8073 76.3921 52.8073C77.3285 54.6147 79.5041 55.642 82.3702 55.642C84.1012 55.642 85.8889 55.0523 87.4024 53.9868C88.8307 52.9785 89.8806 51.6562 90.363 50.2389C90.8454 48.8215 90.7319 47.5087 90.0509 46.5289C89.3415 45.5206 88.0739 44.9689 86.4943 44.9689C84.2147 44.9689 82.1999 45.6823 80.3365 47.1663C80.3365 47.1663 79.8446 47.5563 79.75 47.6324H72.6652C72.949 47.0331 81.8878 27.7415 82.0013 27.4941H105.403H105.393Z" fill="#FF4100"/>
<path d="M108.469 27.4934C108.724 27.4934 124.644 27.4934 125.268 27.4934C125.013 28.0546 120.737 37.4151 120.737 37.4151L120.898 37.5102C122.62 38.5566 123.547 40.3069 123.547 42.3711C123.547 43.0275 123.452 43.7124 123.263 44.4259C122.005 49.1061 116.746 54.0717 109.462 54.0717C105.565 54.0717 102.708 52.8255 100.968 50.3808C100.968 50.3808 100.694 49.9908 100.523 49.753C100.873 49.5342 106.161 46.1952 106.445 46.024C106.587 46.1952 106.852 46.4996 106.852 46.4996C107.968 47.8124 109.519 48.5353 111.203 48.5353C114.059 48.5353 116.367 46.5377 116.859 44.6827C116.916 44.4449 116.954 44.2071 116.954 43.9693C116.954 43.4271 116.783 42.9324 116.443 42.4853C115.639 41.4294 113.908 40.7921 111.799 40.735C112.026 40.2213 115.289 33.0012 115.289 33.0012H108.365C108.365 33.0012 106.643 33.0012 105.915 33.0012C106.161 32.4685 108.346 27.6931 108.45 27.4648L108.469 27.4934Z" fill="#FF4100"/>
<path d="M67.5679 27.4841C67.4639 27.8551 67.2085 28.8349 67.199 28.8635C66.9058 29.672 66.395 30.1667 65.6383 30.3855C64.8816 30.5377 64.2762 30.6138 63.8694 30.6138H52.3011L52.2443 30.747C50.816 33.4676 49.435 35.8933 48.8107 36.7875C48.2053 37.5961 47.1743 38.0051 45.746 38.0051H43.8353C44.1474 37.4248 49.3783 27.6934 49.4918 27.4841C49.7377 27.4841 67.0382 27.4746 67.5679 27.4746V27.4841ZM46.6352 45.853C46.446 46.3572 44.7717 51.0374 44.7717 51.0374C44.3082 52.1694 43.7975 52.8924 43.2583 53.1778C42.6624 53.4061 42.057 53.5107 41.5084 53.5107H39.5977C39.872 52.9875 41.4516 50.0101 41.4516 50.0101C41.4611 49.991 42.7853 46.5475 43.0596 45.8435H46.6352V45.853ZM54.8456 39.6698C54.7604 39.9837 54.524 40.8589 54.524 40.8589H60.5493C60.4358 41.306 59.6507 44.1978 59.5845 44.4737H53.5591C53.5591 44.4737 51.0336 53.9293 50.9485 54.2242H45.8595C45.9919 53.72 48.4702 44.4737 48.4702 44.4737C48.4702 44.4737 43.9299 44.4737 43.438 44.4737C43.561 44.0266 44.3366 41.1252 44.4123 40.8494H49.435C49.435 40.8494 49.6904 39.8981 49.7472 39.6603H54.8361L54.8456 39.6698ZM55.9806 32.0217C55.9806 32.4117 55.905 37.4058 55.8955 37.7768H53.3416C52.1781 37.7768 52.0268 37.149 52.0173 36.6828C51.97 36.388 51.9511 36.0455 51.9511 35.6555C51.9511 34.7137 52.093 33.4961 52.3578 32.0217H55.9806ZM61.7506 32.0217C61.7223 32.4307 61.3912 37.6626 61.3817 38.0241H59.821C58.667 38.0241 58.0238 37.6531 57.863 36.8826C57.8062 36.6163 57.7779 36.3023 57.7779 35.9313C57.7779 34.9801 57.9765 33.6769 58.3832 32.0217H61.7506ZM57.74 45.853C57.6738 46.2906 57.1346 49.8959 57.1346 49.8959C57.1346 49.9054 56.8887 52.959 56.8225 53.758H55.5172C54.3915 53.6914 53.7389 53.4251 53.5781 52.959C53.4078 52.607 53.3321 52.2741 53.3321 51.9506C53.3321 51.7699 53.3605 51.5892 53.4078 51.4179C53.4078 51.3989 54.2307 46.7948 54.401 45.8625H57.7495L57.74 45.853ZM71.6069 36.5592C69.9137 39.6032 68.5895 41.696 67.672 42.7424C66.7355 43.8078 65.5532 44.293 64.0303 44.2169H61.3912C61.7696 43.6176 66.1774 36.7399 66.3004 36.5592H71.5975H71.6069ZM75.3905 27.5127C73.7068 30.5567 72.3825 32.64 71.4556 33.6959C70.538 34.7518 69.3084 35.2464 67.8139 35.1703H65.1748C65.5532 34.5806 69.961 27.6934 70.084 27.5127H75.3811H75.3905ZM69.0719 45.3869C67.2274 48.9827 65.8937 51.3989 65.1086 52.5499C64.2194 53.758 62.933 54.3098 61.1642 54.2432H58.5157C58.8656 53.6439 63.6424 45.5867 63.7559 45.3869H69.0719Z" fill="#FF4100"/>
<path d="M131.169 45.5296L131.311 45.2252H130.98C128.246 45.1967 126.089 44.1408 124.907 42.2478C124.283 41.2584 123.961 40.0884 123.961 38.7756V38.7376C123.961 37.9575 124.065 37.168 124.273 36.3784C125.758 30.8326 131.036 26.9609 137.109 26.9609C140.429 26.9609 143.248 28.2832 144.638 30.4901C145.65 32.0978 145.773 33.9908 144.979 35.6935C143.579 38.6615 135.879 53.0541 135.264 54.1956C135.028 54.1956 127.726 54.2147 127.12 54.2242C127.376 53.6534 131.159 45.5201 131.159 45.5201L131.169 45.5296ZM135.548 32.3831C133.354 32.3831 131.112 34.0764 130.563 36.1501C130.289 37.168 130.45 38.1288 131.008 38.8612C131.585 39.6223 132.512 40.0408 133.619 40.0313C135.813 40.0313 138.055 38.3381 138.613 36.2643C138.887 35.2464 138.726 34.2857 138.168 33.5532C137.591 32.7922 136.664 32.3831 135.558 32.3831H135.548Z" fill="#FF4100"/>
<path d="M36.882 27.4932C37.005 27.6644 42.7845 35.7216 43.229 36.3399H38.7928C37.6009 36.3399 36.778 35.9784 36.2672 35.246C35.6997 34.523 34.8011 33.1722 33.5903 31.2031L33.5241 31.108H25.5596L25.4934 31.1746C23.3557 33.2864 21.7571 34.7228 20.745 35.4267C19.695 36.0355 18.5032 36.3494 17.2073 36.3494H13.4805C14.2845 35.6645 23.7056 27.5978 23.8192 27.4932H36.882ZM28.7378 32.8868C28.7378 32.8868 31.3296 32.8773 32.2377 32.8773C31.9728 33.4291 29.05 39.6408 29.05 39.6408C29.05 39.6408 40.6751 39.6503 41.3088 39.6503C41.0345 40.2306 35.5578 51.8741 35.5578 51.8741C34.7821 53.5958 32.3701 54.2808 30.4594 54.1951C30.4594 54.1951 29.0689 54.1761 28.4162 54.1761C28.7 53.6054 33.7416 43.2271 33.7416 43.2271C33.7416 43.2271 16.129 43.2366 15.4763 43.2366C15.7223 42.7324 17.1222 39.8215 17.2168 39.6123C17.4722 39.6123 23.384 39.6123 23.384 39.6123L23.4408 39.4886C24.4434 37.0343 25.6069 34.5896 26.0893 33.9332C26.7136 33.2768 27.6122 32.8963 28.7378 32.8678V32.8868Z" fill="#FF4100"/>
<path d="M77.6242 50.1526C77.908 46.8327 80.8119 44.3689 84.1131 44.6543C87.4143 44.9397 89.8642 47.8601 89.5804 51.1895C89.2966 54.5094 86.3927 56.9732 83.0821 56.6878C79.7809 56.4024 77.3405 53.4821 77.6148 50.1526H77.6242Z" fill="white" stroke="white" stroke-width="3.58"/>
<path d="M77.6242 50.1526C77.908 46.8327 80.8119 44.3689 84.1131 44.6543C87.4143 44.9397 89.8642 47.8601 89.5804 51.1895C89.2966 54.5094 86.3927 56.9732 83.0821 56.6878C79.7809 56.4024 77.3405 53.4821 77.6148 50.1526H77.6242Z" fill="url(#paint4_radial_982_160647)"/>
</g>
<defs>
<radialGradient id="paint0_radial_982_160647" cx="0" cy="0" r="1" gradientUnits="userSpaceOnUse" gradientTransform="translate(80.7242 12.318) rotate(4.98799) scale(9.53508 9.58833)">
<stop offset="0.1" stop-color="#FFFFCC"/>
<stop offset="0.16" stop-color="#FFFCC2"/>
<stop offset="0.26" stop-color="#FFF6A9"/>
<stop offset="0.39" stop-color="#FFEC80"/>
<stop offset="0.54" stop-color="#FFDD47"/>
<stop offset="0.7" stop-color="#FFCC00"/>
<stop offset="1" stop-color="#FF7F00"/>
</radialGradient>
<radialGradient id="paint1_radial_982_160647" cx="0" cy="0" r="1" gradientUnits="userSpaceOnUse" gradientTransform="translate(96.1653 12.7105) rotate(4.98798) scale(7.43509 7.47662)">
<stop offset="0.1" stop-color="#FE5A12"/>
<stop offset="0.24" stop-color="#FE500F"/>
<stop offset="0.48" stop-color="#FE3708"/>
<stop offset="0.7" stop-color="#FF1A00"/>
<stop offset="1" stop-color="#FF0000"/>
</radialGradient>
<radialGradient id="paint2_radial_982_160647" cx="0" cy="0" r="1" gradientUnits="userSpaceOnUse" gradientTransform="translate(70.2768 20.7442) rotate(4.98799) scale(11.1243 11.1864)">
<stop offset="0.1" stop-color="#B3DE53"/>
<stop offset="0.2" stop-color="#A9D94E"/>
<stop offset="0.37" stop-color="#90CD43"/>
<stop offset="0.58" stop-color="#67B931"/>
<stop offset="0.7" stop-color="#4DAC26"/>
<stop offset="1" stop-color="#1A9431"/>
</radialGradient>
<radialGradient id="paint3_radial_982_160647" cx="0" cy="0" r="1" gradientUnits="userSpaceOnUse" gradientTransform="translate(107.742 18.7263) rotate(5.69189) scale(6.10139 6.13531)">
<stop offset="0.1" stop-color="#00A0C6"/>
<stop offset="0.21" stop-color="#0196C1"/>
<stop offset="0.38" stop-color="#047DB6"/>
<stop offset="0.61" stop-color="#0954A3"/>
<stop offset="0.7" stop-color="#0C419A"/>
<stop offset="1" stop-color="#0F218B"/>
</radialGradient>
<radialGradient id="paint4_radial_982_160647" cx="0" cy="0" r="1" gradientUnits="userSpaceOnUse" gradientTransform="translate(82.4173 48.1274) rotate(4.93771) scale(7.79454 7.83809)">
<stop offset="0.08" stop-color="#812B92"/>
<stop offset="0.32" stop-color="#77258E"/>
<stop offset="0.7" stop-color="#601687"/>
<stop offset="1" stop-color="#3F017D"/>
</radialGradient>
<clipPath id="clip0_982_160647">
<rect width="157" height="70" fill="white"/>
</clipPath>
</defs>
</svg>
